<?xml version="1.0" encoding="utf-8"?>
<!-- Generator: Adobe Illustrator 23.0.6, SVG Export Plug-In . SVG Version: 6.00 Build 0)  -->
<svg version="1.1" id="Ebene_1" xmlns="http://www.w3.org/2000/svg" xmlns:xlink="http://www.w3.org/1999/xlink" x="0px" y="0px"
	 viewBox="0 0 200 200" style="enable-background:new 0 0 200 200;" xml:space="preserve">
<style type="text/css">
	.st0{fill:none;stroke:#5A5A59;stroke-width:4;stroke-linecap:round;stroke-miterlimit:10;}
</style>
<g>
	<g>
		<path class="st0" d="M102.21,152.68l73.12-73.12c13.6-13.6,13.6-35.73,0-49.33l0,0C168.75,23.63,159.99,20,150.67,20
			c-9.32,0-18.08,3.63-24.67,10.22L22.37,133.85c-10.54,10.54-10.54,27.7,0,38.24c5.27,5.27,12.2,7.91,19.12,7.91
			c6.92,0,13.85-2.64,19.12-7.91l81.62-81.62c7.48-7.48,7.48-19.65,0-27.13c-7.48-7.48-19.65-7.48-27.12,0l-52.44,52.43
			 M175.34,30.22"/>
	</g>
</g>
</svg>
