<?xml version="1.0" encoding="utf-8"?>
<!-- Generator: Adobe Illustrator 23.0.6, SVG Export Plug-In . SVG Version: 6.00 Build 0)  -->
<svg version="1.1" id="Ebene_1" xmlns="http://www.w3.org/2000/svg" xmlns:xlink="http://www.w3.org/1999/xlink" x="0px" y="0px"
	 viewBox="0 0 200 200" style="enable-background:new 0 0 200 200;" xml:space="preserve">
<style type="text/css">
	.st0{fill:none;stroke:#5A5A59;stroke-width:4;stroke-miterlimit:10;}
</style>
<path class="st0" d="M79.19,86.63H27.11c-3.93,0-7.11-3.18-7.11-7.11V27.44c0-3.93,3.18-7.11,7.11-7.11h52.08
	c3.93,0,7.11,3.18,7.11,7.11v52.08C86.3,83.45,83.12,86.63,79.19,86.63z"/>
<path class="st0" d="M172.89,86.63h-52.08c-3.93,0-7.11-3.18-7.11-7.11V27.44c0-3.93,3.18-7.11,7.11-7.11h52.08
	c3.93,0,7.11,3.18,7.11,7.11v52.08C180,83.45,176.82,86.63,172.89,86.63z"/>
<path class="st0" d="M79.19,179.67H27.11c-3.93,0-7.11-3.18-7.11-7.11v-52.08c0-3.93,3.18-7.11,7.11-7.11h52.08
	c3.93,0,7.11,3.18,7.11,7.11v52.08C86.3,176.49,83.12,179.67,79.19,179.67z"/>
<path class="st0" d="M172.89,179.67h-52.08c-3.93,0-7.11-3.18-7.11-7.11v-52.08c0-3.93,3.18-7.11,7.11-7.11h52.08
	c3.93,0,7.11,3.18,7.11,7.11v52.08C180,176.49,176.82,179.67,172.89,179.67z"/>
</svg>
