<?xml version="1.0" encoding="utf-8"?>
<!-- Generator: Adobe Illustrator 23.0.6, SVG Export Plug-In . SVG Version: 6.00 Build 0)  -->
<svg version="1.1" id="Ebene_1" xmlns="http://www.w3.org/2000/svg" xmlns:xlink="http://www.w3.org/1999/xlink" x="0px" y="0px"
	 viewBox="0 0 200 200" style="enable-background:new 0 0 200 200;" xml:space="preserve">
<style type="text/css">
	.st0{fill:none;stroke:#5A5A59;stroke-width:4;stroke-linecap:round;stroke-miterlimit:10;}
</style>
<path class="st0" d="M145.02,180H95.25l0.06-0.6c0,0,7.43-6.04,7.43-16.6c0-14.13-11.75-22.29-20.22-22.29
	c-8.49,0-20.05,8.64-20.05,22.29c0,11.04,6.47,16.72,6.47,16.72L69,180H20V54.98h49.68c0.09-0.14,0.16-0.3,0.16-0.42
	c0-0.02,0-0.03,0-0.05c-0.47-0.4-0.85-0.72-1.33-1.21c-3.64-3.74-5.61-8.58-5.61-13.69C62.89,28.8,71.7,20,82.52,20
	c10.8,0,19.6,8.8,19.6,19.62c0,5.12-1.96,9.96-5.54,13.63l-1.22,1.09c-0.05,0.11-0.06,0.17-0.06,0.22c0,0.14,0.05,0.28,0.14,0.42
	h49.58v49.63c0.14,0.08,0.31,0.14,0.49,0.14c0.3-0.31,0.67-0.75,1.19-1.28c3.74-3.63,8.58-5.59,13.69-5.59
	c10.82,0,19.62,8.8,19.62,19.6c0,10.82-8.8,19.62-19.62,19.62c-5.11,0-9.95-1.97-13.64-5.56l-1.08-1.17
	c-0.2-0.03-0.46,0.02-0.64,0.11V180z"/>
</svg>
