<?xml version="1.0" encoding="utf-8"?>
<!-- Generator: Adobe Illustrator 23.0.6, SVG Export Plug-In . SVG Version: 6.00 Build 0)  -->
<svg version="1.1" id="Ebene_1" xmlns="http://www.w3.org/2000/svg" xmlns:xlink="http://www.w3.org/1999/xlink" x="0px" y="0px"
	 viewBox="0 0 200 200" style="enable-background:new 0 0 200 200;" xml:space="preserve">
<style type="text/css">
	.st0{fill:none;stroke:#5A5A59;stroke-width:4;stroke-linecap:round;stroke-miterlimit:10;}
</style>
<g>
	<line class="st0" x1="130.12" y1="71.03" x2="179.12" y2="22.03"/>
	<line class="st0" x1="19.12" y1="182.03" x2="68.11" y2="133.04"/>
	<path class="st0" d="M151.97,103.93c3.04-3.04,3.04-8.02,0-11.06l-43.69-43.69c-3.04-3.04-8.02-3.04-11.06,0L81.16,65.25l9.58,9.58
		c0.76,0.76,0.76,1.98,0,2.74l-17.8,17.8c-0.72,0.72-0.72,1.91,0,2.63l8.32,8.32c0.72,0.72,1.91,0.72,2.63,0l17.8-17.8
		c0.76-0.76,1.98-0.76,2.74,0l8.21,8.21c0.76,0.76,0.76,1.98,0,2.74l-17.8,17.8c-0.72,0.72-0.72,1.91,0,2.63l8.32,8.32
		c0.72,0.72,1.91,0.72,2.63,0l17.8-17.8c0.76-0.76,1.98-0.76,2.74,0l9.58,9.58L151.97,103.93z"/>
	<path class="st0" d="M134.66,118.75l-8.46-8.46c-0.68-0.68-1.8-0.68-2.49,0l-17.87,17.87c-0.76,0.76-1.98,0.76-2.74,0l-8.21-8.21
		c-0.76-0.76-0.76-1.98,0-2.74l17.87-17.87c0.68-0.68,0.68-1.8,0-2.49l-8.46-8.46c-0.68-0.68-1.8-0.68-2.49,0l-17.87,17.87
		c-0.76,0.76-1.98,0.76-2.74,0l-8.21-8.21c-0.76-0.76-0.76-1.98,0-2.74l17.87-17.87c0.68-0.68,0.68-1.8,0-2.49l-8.46-8.46
		c-0.68-0.68-1.8-0.68-2.49,0L60.67,85.73l-4.48,4.48l-9.93,9.93c-3.04,3.04-3.04,8.02,0,11.06l43.69,43.69
		c3.04,3.04,8.02,3.04,11.06,0l9.93-9.93l4.48-4.48l19.24-19.24C135.34,120.56,135.34,119.44,134.66,118.75z"/>
</g>
</svg>
