<?xml version="1.0" encoding="utf-8"?>
<!-- Generator: Adobe Illustrator 23.0.6, SVG Export Plug-In . SVG Version: 6.00 Build 0)  -->
<svg version="1.1" id="Ebene_1" xmlns="http://www.w3.org/2000/svg" xmlns:xlink="http://www.w3.org/1999/xlink" x="0px" y="0px"
	 viewBox="0 0 200 200" style="enable-background:new 0 0 200 200;" xml:space="preserve">
<style type="text/css">
	.st0{fill:none;stroke:#5A5A59;stroke-width:4;stroke-miterlimit:10;}
	.st1{fill:#5A5A59;}
</style>
<circle class="st0" cx="100" cy="100" r="80"/>
<g>
	<path class="st1" d="M46.66,107.07c-0.76-2.69-1.49-5.26-2.25-7.69l3-0.85c0.4,0.95,1.58,4.9,1.77,5.77c0.46-3.5,2-7.63,8.29-9.42
		c5.44-1.54,11.13,0.14,13.53,8.58l5.62,19.8l-3.06,0.87l-5.48-19.32c-1.54-5.44-4.81-8.34-10.13-6.83
		c-7.27,2.06-8.06,8.83-6.17,15.49l4.42,15.59l-3.06,0.87L46.66,107.07z"/>
	<path class="st1" d="M83.1,105.31c2.3,7.87,7.66,11.63,13.53,9.96c5.74-1.63,6.78-5.43,7.17-8.24l3.12-0.89
		c-0.14,4.4-2.08,9.9-9.6,12.03c-9.29,2.64-15.17-4.34-17.37-12.11c-2.48-8.74-0.28-17.49,8.65-20.02
		c9.41-2.67,14.71,4.61,16.35,10.35c0.24,0.86,0.49,1.71,0.65,2.52L83.1,105.31z M101.71,97.12c-1.78-6.03-6.43-9.87-12.42-8.17
		c-6.3,1.79-7.92,7-6.77,13.61L101.71,97.12z"/>
	<path class="st1" d="M109.24,80.98c9,14.49,14.2,22.79,15.45,25.34l0.06-0.02c-0.21-2.58,0.13-13.04,0.5-29.87l3.3-0.94
		c11.04,17.27,14.3,22.23,15.53,24.45l0.06-0.02c-0.1-3.6,0-8.58,0.3-28.95l3.24-0.92l-0.98,33.3l-3.36,0.95
		c-6.37-9.88-14.11-22.02-15.52-24.66l-0.06,0.02c0.24,3.17-0.14,15.1-0.43,29.18l-3.67,1.04L106,81.9L109.24,80.98z"/>
</g>
</svg>
