<?xml version="1.0" encoding="utf-8"?>
<!-- Generator: Adobe Illustrator 22.1.0, SVG Export Plug-In . SVG Version: 6.00 Build 0)  -->
<svg version="1.2" baseProfile="tiny" id="Ebene_1" xmlns="http://www.w3.org/2000/svg" xmlns:xlink="http://www.w3.org/1999/xlink"
	 x="0px" y="0px" viewBox="0 0 504.054 253.622" xml:space="preserve">
<g>
	<path d="M16.684,245.359c-0.308,0.161-0.771,0.21-1.114,0.21c-1.478,0-2.402-0.952-2.402-2.409c0-1.394,0.98-2.409,2.402-2.409
		c0.336,0,0.792,0.049,1.1,0.182l-0.042,0.497c-0.301-0.14-0.7-0.203-1.029-0.203c-1.156,0-1.849,0.834-1.849,1.934
		c0,1.148,0.666,1.933,1.842,1.933c0.357,0,0.722-0.042,1.051-0.203L16.684,245.359z"/>
	<path d="M17.214,243.16c0-1.289,0.693-2.409,2.101-2.409c1.436,0,2.101,1.085,2.101,2.409c0,1.296-0.693,2.409-2.101,2.409
		c-0.357,0-0.672-0.063-0.938-0.189C17.592,245.002,17.214,244.169,17.214,243.16z M19.315,245.107c1.092,0,1.513-1.002,1.513-1.947
		s-0.42-1.947-1.513-1.947c-1.072,0-1.52,1.016-1.52,1.947c0,0.469,0.112,0.952,0.357,1.323
		C18.405,244.855,18.783,245.107,19.315,245.107z"/>
	<path d="M22.359,245.492v-4.672h1.219c1.492,0,2.417,0.75,2.417,2.27c0,1.653-1.128,2.402-2.676,2.402H22.359z M22.912,245.037
		h0.393c1.316,0,2.108-0.581,2.108-1.947c0-1.177-0.672-1.813-1.856-1.813h-0.645V245.037z"/>
	<path d="M26.916,245.492v-4.672h2.409v0.456h-1.856v1.597h1.765v0.441h-1.765v1.723h1.933v0.455H26.916z"/>
	<path d="M30.122,244.834c0.329,0.203,0.686,0.273,1.079,0.273c0.532,0,0.952-0.231,0.952-0.848c0-0.49-0.371-0.722-0.805-0.945
		l-0.378-0.203c-0.448-0.245-0.805-0.533-0.805-1.149c0-0.847,0.749-1.211,1.506-1.211c0.329,0,0.616,0.049,0.903,0.168
		l-0.063,0.497c-0.252-0.14-0.546-0.203-0.833-0.203c-0.49,0-0.946,0.168-0.946,0.729c0,0.385,0.28,0.603,0.651,0.798l0.378,0.203
		c0.525,0.28,0.966,0.567,0.966,1.282c0,0.875-0.721,1.345-1.52,1.345c-0.399,0-0.792-0.056-1.148-0.217L30.122,244.834z"/>
	<path d="M34.763,245.492v-1.947l-1.723-2.725h0.616l1.401,2.276l1.4-2.276h0.596l-1.737,2.725v1.947H34.763z"/>
	<path d="M37.458,244.834c0.329,0.203,0.686,0.273,1.079,0.273c0.532,0,0.952-0.231,0.952-0.848c0-0.49-0.371-0.722-0.805-0.945
		l-0.378-0.203c-0.448-0.245-0.805-0.533-0.805-1.149c0-0.847,0.749-1.211,1.506-1.211c0.329,0,0.616,0.049,0.903,0.168
		l-0.063,0.497c-0.252-0.14-0.546-0.203-0.833-0.203c-0.49,0-0.946,0.168-0.946,0.729c0,0.385,0.28,0.603,0.651,0.798l0.378,0.203
		c0.525,0.28,0.966,0.567,0.966,1.282c0,0.875-0.721,1.345-1.52,1.345c-0.399,0-0.792-0.056-1.148-0.217L37.458,244.834z"/>
	<path d="M45.838,245.359c-0.308,0.161-0.771,0.21-1.114,0.21c-1.478,0-2.402-0.952-2.402-2.409c0-1.394,0.98-2.409,2.402-2.409
		c0.336,0,0.792,0.049,1.1,0.182l-0.042,0.497c-0.301-0.14-0.7-0.203-1.029-0.203c-1.156,0-1.849,0.834-1.849,1.934
		c0,1.148,0.666,1.933,1.842,1.933c0.357,0,0.722-0.042,1.051-0.203L45.838,245.359z"/>
	<path d="M46.389,243.734c0-1.002,0.595-1.8,1.632-1.8c1.092,0,1.632,0.771,1.632,1.8c0,1.009-0.553,1.835-1.632,1.835
		c-0.273,0-0.511-0.049-0.714-0.141C46.698,245.135,46.389,244.498,46.389,243.734z M48.021,245.142
		c0.763,0,1.085-0.735,1.085-1.407c0-0.7-0.301-1.373-1.085-1.373c-0.771,0-1.085,0.7-1.085,1.373c0,0.336,0.077,0.687,0.252,0.959
		C47.363,244.953,47.636,245.142,48.021,245.142z"/>
	<path d="M50.456,245.492v-2.668c0-0.273-0.007-0.547-0.035-0.82h0.469l0.021,0.603c0.245-0.448,0.624-0.672,1.128-0.672
		c0.896,0,1.169,0.588,1.169,1.394v2.164h-0.504v-2.066c0-0.553-0.112-1.058-0.784-1.058c-0.729,0-0.953,0.631-0.953,1.247v1.877
		H50.456z"/>
	<path d="M55.868,245.464c-0.175,0.077-0.378,0.105-0.567,0.105c-0.714,0-0.806-0.519-0.806-1.155v-2.011h-0.658v-0.399h0.658
		v-0.784L55,241.045v0.959h0.792v0.399H55v2.144c0,0.308,0.084,0.581,0.448,0.581c0.14,0,0.259-0.035,0.392-0.091L55.868,245.464z"
		/>
	<path d="M56.525,245.492v-2.668c0-0.273-0.007-0.547-0.035-0.82h0.469l0.028,0.659c0.133-0.357,0.497-0.729,0.924-0.729
		c0.105,0,0.189,0,0.294,0.027l-0.028,0.512c-0.091-0.028-0.189-0.042-0.28-0.042c-0.707,0-0.861,0.784-0.861,1.331v1.729H56.525z"
		/>
	<path d="M58.534,243.734c0-1.002,0.595-1.8,1.632-1.8c1.092,0,1.632,0.771,1.632,1.8c0,1.009-0.553,1.835-1.632,1.835
		c-0.273,0-0.511-0.049-0.714-0.141C58.842,245.135,58.534,244.498,58.534,243.734z M60.166,245.142
		c0.763,0,1.085-0.735,1.085-1.407c0-0.7-0.301-1.373-1.085-1.373c-0.771,0-1.085,0.7-1.085,1.373c0,0.336,0.077,0.687,0.252,0.959
		C59.508,244.953,59.781,245.142,60.166,245.142z"/>
	<path d="M62.601,245.492v-5.05h0.511v5.05H62.601z"/>
	<path d="M65.653,241.227v-0.609h0.511v0.609H65.653z M65.653,245.492v-3.488h0.511v3.488H65.653z"/>
	<path d="M67.025,244.932c0.28,0.147,0.539,0.218,0.854,0.218c0.393,0,0.666-0.189,0.666-0.582c0-0.847-1.506-0.602-1.506-1.667
		c0-0.7,0.582-0.966,1.128-0.966c0.287,0,0.546,0.056,0.791,0.146l-0.07,0.441c-0.217-0.104-0.469-0.175-0.714-0.175
		c-0.273,0-0.624,0.104-0.624,0.525c0,0.7,1.52,0.483,1.52,1.652c0,0.673-0.567,1.044-1.184,1.044c-0.336,0-0.645-0.042-0.925-0.161
		L67.025,244.932z"/>
	<path d="M73.06,245.464c-0.175,0.077-0.378,0.105-0.567,0.105c-0.714,0-0.806-0.519-0.806-1.155v-2.011h-0.658v-0.399h0.658v-0.784
		l0.504-0.175v0.959h0.792v0.399h-0.792v2.144c0,0.308,0.084,0.581,0.448,0.581c0.14,0,0.259-0.035,0.392-0.091L73.06,245.464z"/>
	<path d="M73.717,245.492v-5.05h0.511v2.15c0.224-0.441,0.582-0.658,1.079-0.658c0.854,0,1.163,0.588,1.163,1.394v2.164h-0.504
		v-2.073c0-0.553-0.112-1.051-0.784-1.051c-0.721,0-0.953,0.624-0.953,1.24v1.884H73.717z"/>
	<path d="M77.798,243.812c0,0.672,0.357,1.345,1.233,1.345c0.336,0,0.7-0.099,0.959-0.267l0.021,0.455
		c-0.301,0.147-0.651,0.225-0.98,0.225c-1.205,0-1.765-0.792-1.765-1.835c0-0.89,0.511-1.8,1.555-1.8
		c1.086,0,1.394,0.868,1.394,1.793v0.084H77.798z M79.717,243.433c-0.035-0.476-0.21-1.092-0.889-1.092
		c-0.666,0-1.009,0.595-1.03,1.092H79.717z"/>
	<path d="M82.207,241.962l0.582-1.52h0.413l-0.406,1.52H82.207z M83.419,241.962l0.581-1.52h0.406L84,241.962H83.419z"/>
	<path d="M85.553,245.492v-5.05h0.511v2.15c0.175-0.413,0.63-0.658,1.072-0.658c1.064,0,1.415,0.875,1.415,1.8
		c0,0.896-0.385,1.835-1.422,1.835c-0.483,0-0.868-0.21-1.092-0.658l-0.014,0.581H85.553z M87.032,245.135
		c0.777,0,0.966-0.764,0.966-1.4c0-0.645-0.175-1.366-0.966-1.366c-0.729,0-0.988,0.75-0.988,1.366c0,0.308,0.063,0.651,0.21,0.932
		C86.415,244.939,86.66,245.135,87.032,245.135z"/>
	<path d="M89.355,245.492v-2.668c0-0.273-0.007-0.547-0.035-0.82h0.469l0.028,0.659c0.133-0.357,0.497-0.729,0.924-0.729
		c0.105,0,0.189,0,0.294,0.027l-0.028,0.512c-0.091-0.028-0.189-0.042-0.28-0.042c-0.707,0-0.861,0.784-0.861,1.331v1.729H89.355z"
		/>
	<path d="M93.549,245.492l-0.021-0.561c-0.203,0.448-0.645,0.638-1.085,0.638c-0.624,0-1.142-0.329-1.142-1.037
		c0-0.896,0.784-1.162,1.807-1.162H93.5v-0.168c0-0.532-0.203-0.861-0.785-0.861c-0.357,0-0.687,0.098-0.987,0.294l-0.042-0.455
		c0.301-0.147,0.721-0.245,1.05-0.245c0.875,0,1.268,0.427,1.268,1.303v1.513c0,0.259,0.007,0.497,0.042,0.742H93.549z
		 M93.241,243.741c-0.651,0-1.415,0.07-1.415,0.771c0,0.469,0.33,0.645,0.672,0.645c0.743,0,1.002-0.561,1.002-1.205v-0.21H93.241z"
		/>
	<path d="M95.024,241.227v-0.609h0.511v0.609H95.024z M95.024,245.492v-3.488h0.511v3.488H95.024z"/>
	<path d="M96.551,245.492v-2.668c0-0.273-0.007-0.547-0.035-0.82h0.469l0.021,0.603c0.245-0.448,0.624-0.672,1.128-0.672
		c0.896,0,1.169,0.588,1.169,1.394v2.164h-0.504v-2.066c0-0.553-0.112-1.058-0.784-1.058c-0.729,0-0.953,0.631-0.953,1.247v1.877
		H96.551z"/>
	<path d="M100.169,244.932c0.28,0.147,0.539,0.218,0.854,0.218c0.393,0,0.666-0.189,0.666-0.582c0-0.847-1.506-0.602-1.506-1.667
		c0-0.7,0.582-0.966,1.128-0.966c0.287,0,0.546,0.056,0.791,0.146l-0.07,0.441c-0.217-0.104-0.469-0.175-0.714-0.175
		c-0.273,0-0.624,0.104-0.624,0.525c0,0.7,1.52,0.483,1.52,1.652c0,0.673-0.567,1.044-1.184,1.044c-0.336,0-0.645-0.042-0.925-0.161
		L100.169,244.932z"/>
	<path d="M102.801,241.962l0.406-1.52h0.588l-0.582,1.52H102.801z M104.006,241.962l0.406-1.52H105l-0.582,1.52H104.006z"/>
	<path d="M107.989,245.492v-3.082h-0.68v-0.406h0.68v-0.448c0-0.497,0.084-1.184,0.938-1.184c0.133,0,0.329,0.008,0.448,0.07
		l-0.042,0.42c-0.105-0.049-0.224-0.063-0.336-0.063c-0.427,0-0.504,0.343-0.504,0.735v0.469h0.785v0.406H108.5v3.082H107.989z"/>
	<path d="M109.675,243.734c0-1.002,0.595-1.8,1.632-1.8c1.093,0,1.632,0.771,1.632,1.8c0,1.009-0.553,1.835-1.632,1.835
		c-0.273,0-0.511-0.049-0.714-0.141C109.983,245.135,109.675,244.498,109.675,243.734z M111.307,245.142
		c0.763,0,1.085-0.735,1.085-1.407c0-0.7-0.301-1.373-1.085-1.373c-0.771,0-1.085,0.7-1.085,1.373c0,0.336,0.077,0.687,0.252,0.959
		C110.649,244.953,110.922,245.142,111.307,245.142z"/>
	<path d="M113.742,245.492v-2.668c0-0.273-0.007-0.547-0.035-0.82h0.469l0.028,0.659c0.133-0.357,0.497-0.729,0.924-0.729
		c0.105,0,0.189,0,0.294,0.027l-0.028,0.512c-0.091-0.028-0.189-0.042-0.28-0.042c-0.707,0-0.861,0.784-0.861,1.331v1.729H113.742z"
		/>
	<path d="M119.203,245.464c-0.175,0.077-0.378,0.105-0.567,0.105c-0.714,0-0.806-0.519-0.806-1.155v-2.011h-0.658v-0.399h0.658
		v-0.784l0.504-0.175v0.959h0.792v0.399h-0.792v2.144c0,0.308,0.084,0.581,0.448,0.581c0.14,0,0.259-0.035,0.392-0.091
		L119.203,245.464z"/>
	<path d="M119.86,245.492v-5.05h0.511v2.15c0.224-0.441,0.582-0.658,1.079-0.658c0.854,0,1.163,0.588,1.163,1.394v2.164h-0.504
		v-2.073c0-0.553-0.112-1.051-0.784-1.051c-0.721,0-0.953,0.624-0.953,1.24v1.884H119.86z"/>
	<path d="M123.941,243.812c0,0.672,0.357,1.345,1.233,1.345c0.336,0,0.7-0.099,0.959-0.267l0.021,0.455
		c-0.301,0.147-0.651,0.225-0.98,0.225c-1.205,0-1.765-0.792-1.765-1.835c0-0.89,0.511-1.8,1.555-1.8
		c1.086,0,1.394,0.868,1.394,1.793v0.084H123.941z M125.86,243.433c-0.035-0.476-0.21-1.092-0.889-1.092
		c-0.666,0-1.009,0.595-1.03,1.092H125.86z"/>
	<path d="M128.589,247.005v-3.831c0-0.413-0.014-0.777-0.035-1.17h0.483l0.028,0.609c0.189-0.413,0.645-0.679,1.107-0.679
		c1.064,0,1.415,0.875,1.415,1.8c0,0.896-0.385,1.835-1.422,1.835c-0.455,0-0.889-0.231-1.064-0.645v2.08H128.589z M130.067,245.135
		c0.777,0,0.966-0.764,0.966-1.4c0-0.645-0.175-1.366-0.966-1.366c-0.729,0-0.988,0.75-0.988,1.366c0,0.308,0.063,0.651,0.21,0.932
		C129.45,244.939,129.695,245.135,130.067,245.135z"/>
	<path d="M132.39,245.492v-2.668c0-0.273-0.007-0.547-0.035-0.82h0.469l0.028,0.659c0.133-0.357,0.497-0.729,0.924-0.729
		c0.105,0,0.189,0,0.294,0.027l-0.028,0.512c-0.091-0.028-0.189-0.042-0.28-0.042c-0.707,0-0.861,0.784-0.861,1.331v1.729H132.39z"
		/>
	<path d="M134.399,243.734c0-1.002,0.595-1.8,1.632-1.8c1.093,0,1.632,0.771,1.632,1.8c0,1.009-0.553,1.835-1.632,1.835
		c-0.273,0-0.511-0.049-0.714-0.141C134.707,245.135,134.399,244.498,134.399,243.734z M136.031,245.142
		c0.763,0,1.085-0.735,1.085-1.407c0-0.7-0.301-1.373-1.085-1.373c-0.771,0-1.085,0.7-1.085,1.373c0,0.336,0.077,0.687,0.252,0.959
		C135.372,244.953,135.645,245.142,136.031,245.142z"/>
	<path d="M140.826,245.437c-0.301,0.104-0.595,0.133-0.903,0.133c-1.072,0-1.667-0.819-1.667-1.835c0-1.037,0.651-1.8,1.716-1.8
		c0.287,0,0.582,0.056,0.854,0.146l-0.042,0.455c-0.224-0.104-0.476-0.175-0.729-0.175c-0.84,0-1.253,0.589-1.253,1.373
		c0,0.735,0.413,1.407,1.218,1.407c0.273,0,0.525-0.056,0.771-0.161L140.826,245.437z"/>
	<path d="M141.875,243.812c0,0.672,0.357,1.345,1.233,1.345c0.336,0,0.7-0.099,0.959-0.267l0.021,0.455
		c-0.301,0.147-0.651,0.225-0.98,0.225c-1.205,0-1.765-0.792-1.765-1.835c0-0.89,0.511-1.8,1.555-1.8
		c1.086,0,1.394,0.868,1.394,1.793v0.084H141.875z M143.794,243.433c-0.035-0.476-0.21-1.092-0.889-1.092
		c-0.666,0-1.009,0.595-1.03,1.092H143.794z"/>
	<path d="M144.85,244.932c0.28,0.147,0.539,0.218,0.854,0.218c0.393,0,0.666-0.189,0.666-0.582c0-0.847-1.506-0.602-1.506-1.667
		c0-0.7,0.582-0.966,1.128-0.966c0.287,0,0.546,0.056,0.791,0.146l-0.07,0.441c-0.217-0.104-0.469-0.175-0.714-0.175
		c-0.273,0-0.624,0.104-0.624,0.525c0,0.7,1.52,0.483,1.52,1.652c0,0.673-0.567,1.044-1.184,1.044c-0.336,0-0.645-0.042-0.925-0.161
		L144.85,244.932z"/>
	<path d="M147.573,244.932c0.28,0.147,0.539,0.218,0.854,0.218c0.393,0,0.666-0.189,0.666-0.582c0-0.847-1.506-0.602-1.506-1.667
		c0-0.7,0.582-0.966,1.128-0.966c0.287,0,0.546,0.056,0.791,0.146l-0.07,0.441c-0.217-0.104-0.469-0.175-0.714-0.175
		c-0.273,0-0.624,0.104-0.624,0.525c0,0.7,1.52,0.483,1.52,1.652c0,0.673-0.567,1.044-1.184,1.044c-0.336,0-0.645-0.042-0.925-0.161
		L147.573,244.932z"/>
	<path d="M150.449,241.227v-0.609h0.511v0.609H150.449z M150.449,245.492v-3.488h0.511v3.488H150.449z"/>
	<path d="M151.975,245.492v-2.668c0-0.273-0.007-0.547-0.035-0.82h0.469l0.021,0.603c0.245-0.448,0.624-0.672,1.128-0.672
		c0.896,0,1.169,0.588,1.169,1.394v2.164h-0.504v-2.066c0-0.553-0.112-1.058-0.784-1.058c-0.729,0-0.953,0.631-0.953,1.247v1.877
		H151.975z"/>
	<path d="M155.861,246.402c0.308,0.161,0.651,0.253,1.008,0.253c0.84,0,1.156-0.575,1.156-1.331v-0.448
		c-0.217,0.392-0.637,0.616-1.079,0.616c-1.037,0-1.408-0.896-1.408-1.758c0-0.925,0.392-1.8,1.422-1.8
		c0.497,0,0.868,0.21,1.092,0.658v-0.589h0.483v3.313c0,1.085-0.49,1.765-1.632,1.765c-0.364,0-0.729-0.07-1.085-0.182
		L155.861,246.402z M157.051,245.058c0.75,0,0.987-0.729,0.987-1.316c0-0.609-0.259-1.373-0.98-1.373
		c-0.784,0-0.973,0.729-0.973,1.373c0,0.301,0.049,0.63,0.189,0.883C156.421,244.876,156.659,245.058,157.051,245.058z"/>
	<path d="M160.858,243.734c0-1.002,0.595-1.8,1.632-1.8c1.092,0,1.632,0.771,1.632,1.8c0,1.009-0.553,1.835-1.632,1.835
		c-0.273,0-0.511-0.049-0.714-0.141C161.166,245.135,160.858,244.498,160.858,243.734z M162.49,245.142
		c0.763,0,1.085-0.735,1.085-1.407c0-0.7-0.301-1.373-1.085-1.373c-0.771,0-1.085,0.7-1.085,1.373c0,0.336,0.077,0.687,0.252,0.959
		C161.832,244.953,162.105,245.142,162.49,245.142z"/>
	<path d="M165.24,245.492v-3.082h-0.68v-0.406h0.68v-0.448c0-0.497,0.084-1.184,0.938-1.184c0.133,0,0.329,0.008,0.448,0.07
		l-0.042,0.42c-0.105-0.049-0.224-0.063-0.336-0.063c-0.427,0-0.504,0.343-0.504,0.735v0.469h0.785v0.406h-0.777v3.082H165.24z"/>
	<path d="M171.016,245.437c-0.301,0.104-0.595,0.133-0.903,0.133c-1.072,0-1.667-0.819-1.667-1.835c0-1.037,0.651-1.8,1.716-1.8
		c0.287,0,0.582,0.056,0.854,0.146l-0.042,0.455c-0.224-0.104-0.476-0.175-0.729-0.175c-0.84,0-1.253,0.589-1.253,1.373
		c0,0.735,0.413,1.407,1.218,1.407c0.273,0,0.525-0.056,0.771-0.161L171.016,245.437z"/>
	<path d="M171.547,243.734c0-1.002,0.595-1.8,1.632-1.8c1.093,0,1.632,0.771,1.632,1.8c0,1.009-0.553,1.835-1.632,1.835
		c-0.273,0-0.511-0.049-0.714-0.141C171.855,245.135,171.547,244.498,171.547,243.734z M173.179,245.142
		c0.763,0,1.085-0.735,1.085-1.407c0-0.7-0.301-1.373-1.085-1.373c-0.771,0-1.085,0.7-1.085,1.373c0,0.336,0.077,0.687,0.252,0.959
		C172.521,244.953,172.794,245.142,173.179,245.142z"/>
	<path d="M175.614,245.492v-2.668c0-0.273-0.007-0.547-0.035-0.82h0.469l0.021,0.603c0.245-0.448,0.624-0.672,1.128-0.672
		c0.896,0,1.169,0.588,1.169,1.394v2.164h-0.504v-2.066c0-0.553-0.112-1.058-0.784-1.058c-0.729,0-0.953,0.631-0.953,1.247v1.877
		H175.614z"/>
	<path d="M181.026,245.464c-0.175,0.077-0.378,0.105-0.567,0.105c-0.714,0-0.806-0.519-0.806-1.155v-2.011h-0.658v-0.399h0.658
		v-0.784l0.504-0.175v0.959h0.792v0.399h-0.792v2.144c0,0.308,0.084,0.581,0.448,0.581c0.14,0,0.259-0.035,0.392-0.091
		L181.026,245.464z"/>
	<path d="M181.683,245.492v-2.668c0-0.273-0.007-0.547-0.035-0.82h0.469l0.028,0.659c0.133-0.357,0.497-0.729,0.924-0.729
		c0.105,0,0.189,0,0.294,0.027l-0.028,0.512c-0.091-0.028-0.189-0.042-0.28-0.042c-0.707,0-0.861,0.784-0.861,1.331v1.729H181.683z"
		/>
	<path d="M183.692,243.734c0-1.002,0.595-1.8,1.632-1.8c1.093,0,1.632,0.771,1.632,1.8c0,1.009-0.553,1.835-1.632,1.835
		c-0.273,0-0.511-0.049-0.714-0.141C184,245.135,183.692,244.498,183.692,243.734z M185.324,245.142
		c0.763,0,1.085-0.735,1.085-1.407c0-0.7-0.301-1.373-1.085-1.373c-0.771,0-1.085,0.7-1.085,1.373c0,0.336,0.077,0.687,0.252,0.959
		C184.665,244.953,184.938,245.142,185.324,245.142z"/>
	<path d="M187.759,245.492v-5.05h0.511v5.05H187.759z"/>
	<path d="M192.443,245.464c-0.175,0.077-0.378,0.105-0.567,0.105c-0.714,0-0.806-0.519-0.806-1.155v-2.011h-0.658v-0.399h0.658
		v-0.784l0.504-0.175v0.959h0.792v0.399h-0.792v2.144c0,0.308,0.084,0.581,0.448,0.581c0.14,0,0.259-0.035,0.392-0.091
		L192.443,245.464z"/>
	<path d="M195.074,245.492l-0.021-0.561c-0.203,0.448-0.645,0.638-1.085,0.638c-0.624,0-1.142-0.329-1.142-1.037
		c0-0.896,0.784-1.162,1.807-1.162h0.393v-0.168c0-0.532-0.203-0.861-0.785-0.861c-0.357,0-0.687,0.098-0.987,0.294l-0.042-0.455
		c0.301-0.147,0.721-0.245,1.05-0.245c0.875,0,1.268,0.427,1.268,1.303v1.513c0,0.259,0.007,0.497,0.042,0.742H195.074z
		 M194.766,243.741c-0.651,0-1.415,0.07-1.415,0.771c0,0.469,0.33,0.645,0.672,0.645c0.743,0,1.002-0.561,1.002-1.205v-0.21H194.766
		z"/>
	<path d="M196.397,244.932c0.28,0.147,0.539,0.218,0.854,0.218c0.393,0,0.666-0.189,0.666-0.582c0-0.847-1.506-0.602-1.506-1.667
		c0-0.7,0.582-0.966,1.128-0.966c0.287,0,0.546,0.056,0.791,0.146l-0.07,0.441c-0.217-0.104-0.469-0.175-0.714-0.175
		c-0.273,0-0.624,0.104-0.624,0.525c0,0.7,1.52,0.483,1.52,1.652c0,0.673-0.567,1.044-1.184,1.044c-0.336,0-0.645-0.042-0.925-0.161
		L196.397,244.932z"/>
	<path d="M199.273,245.492v-5.05h0.511v3.005l1.478-1.443h0.637l-1.604,1.541l1.793,1.947h-0.672l-1.632-1.821v1.821H199.273z"/>
	<path d="M202.472,244.932c0.28,0.147,0.539,0.218,0.854,0.218c0.393,0,0.666-0.189,0.666-0.582c0-0.847-1.506-0.602-1.506-1.667
		c0-0.7,0.582-0.966,1.128-0.966c0.287,0,0.546,0.056,0.791,0.146l-0.07,0.441c-0.217-0.104-0.469-0.175-0.714-0.175
		c-0.273,0-0.624,0.104-0.624,0.525c0,0.7,1.52,0.483,1.52,1.652c0,0.673-0.567,1.044-1.184,1.044c-0.336,0-0.645-0.042-0.925-0.161
		L202.472,244.932z"/>
	<path d="M205.49,245.492v-0.623h0.603v0.623H205.49z"/>
</g>
<rect x="13.311" y="117.014" fill="none" stroke="#C4C4C5" width="370.48" height="113.746"/>
<rect x="12.811" y="8.289" fill="none" width="488.454" height="237.203"/>
<rect x="111.272" y="124.811" fill="none" stroke="#C4C4C5" width="262.36" height="98.152"/>
<rect x="462.425" y="144.008" fill="#FFFFFF" width="3.687" height="48.517"/>
<g>
	<path fill="#DBDBDB" d="M471.187,144.181h-6.391v48.393h6.391c1.106,0,2.212-1.106,2.212-2.211v-43.971
		C473.399,145.287,472.293,144.181,471.187,144.181z M470.751,145.251c0.597,0,1.081,0.485,1.081,1.082s-0.484,1.082-1.081,1.082
		c-0.598,0-1.082-0.485-1.082-1.082S470.152,145.251,470.751,145.251z M470.739,147.804c0.597,0,1.081,0.485,1.081,1.082
		c0,0.597-0.484,1.082-1.081,1.082c-0.598,0-1.082-0.485-1.082-1.082C469.657,148.289,470.141,147.804,470.739,147.804z
		 M467.446,145.251c0.597,0,1.081,0.485,1.081,1.082s-0.484,1.082-1.081,1.082c-0.598,0-1.082-0.485-1.082-1.082
		S466.848,145.251,467.446,145.251z M467.434,147.804c0.597,0,1.081,0.485,1.081,1.082c0,0.597-0.484,1.082-1.081,1.082
		c-0.598,0-1.082-0.485-1.082-1.082C466.352,148.289,466.836,147.804,467.434,147.804z M465.959,161.835h2.951v2.952h-2.951V161.835
		z M466.123,157.228v-2.645h2.645v2.645H466.123z M468.527,158.82c0,0.597-0.484,1.082-1.081,1.082
		c-0.598,0-1.082-0.485-1.082-1.082s0.484-1.082,1.082-1.082C468.043,157.738,468.527,158.223,468.527,158.82z M466.123,167.974
		v-2.645h2.645v2.645H466.123z M468.527,169.567c0,0.597-0.484,1.082-1.081,1.082c-0.598,0-1.082-0.485-1.082-1.082
		s0.484-1.082,1.082-1.082C468.043,168.485,468.527,168.97,468.527,169.567z M465.959,172.292h2.951v2.952h-2.951V172.292z
		 M466.123,178.433v-2.645h2.645v2.645H466.123z M468.527,180.025c0,0.597-0.484,1.082-1.081,1.082
		c-0.598,0-1.082-0.485-1.082-1.082c0-0.597,0.484-1.082,1.082-1.082C468.043,178.943,468.527,179.428,468.527,180.025z
		 M467.446,191.304c-0.598,0-1.082-0.485-1.082-1.082s0.484-1.082,1.082-1.082c0.597,0,1.081,0.485,1.081,1.082
		S468.043,191.304,467.446,191.304z M468.768,188.63h-2.645v-2.645h2.645V188.63z M468.911,185.441h-2.951v-2.951h2.951V185.441z
		 M468.911,154.039h-2.951v-2.952h2.951V154.039z M470.751,191.304c-0.598,0-1.082-0.485-1.082-1.082s0.484-1.082,1.082-1.082
		c0.597,0,1.081,0.485,1.081,1.082S471.348,191.304,470.751,191.304z M472.083,188.63h-2.645v-2.645h2.645V188.63z M472.227,185.441
		h-2.952v-2.951h2.952V185.441z M469.438,178.433v-2.645h2.645v2.645H469.438z M471.832,180.025c0,0.597-0.484,1.082-1.081,1.082
		c-0.598,0-1.082-0.485-1.082-1.082c0-0.597,0.484-1.082,1.082-1.082C471.348,178.943,471.832,179.428,471.832,180.025z
		 M472.227,175.244h-2.952v-2.952h2.952V175.244z M469.438,167.974v-2.645h2.645v2.645H469.438z M471.832,169.567
		c0,0.597-0.484,1.082-1.081,1.082c-0.598,0-1.082-0.485-1.082-1.082s0.484-1.082,1.082-1.082
		C471.348,168.485,471.832,168.97,471.832,169.567z M472.227,164.787h-2.952v-2.952h2.952V164.787z M469.438,157.228v-2.645h2.645
		v2.645H469.438z M471.832,158.82c0,0.597-0.484,1.082-1.081,1.082c-0.598,0-1.082-0.485-1.082-1.082s0.484-1.082,1.082-1.082
		C471.348,157.738,471.832,158.223,471.832,158.82z M472.227,154.039h-2.952v-2.952h2.952V154.039z"/>
	<rect x="469.581" y="182.797" fill="#DBDBDB" width="2.339" height="2.338"/>
	<rect x="466.267" y="151.394" fill="#DBDBDB" width="2.338" height="2.339"/>
	<rect x="469.581" y="172.599" fill="#DBDBDB" width="2.339" height="2.339"/>
	<rect x="466.267" y="182.797" fill="#DBDBDB" width="2.338" height="2.338"/>
	<rect x="466.266" y="162.142" fill="#DBDBDB" width="2.338" height="2.339"/>
	<rect x="469.581" y="162.142" fill="#DBDBDB" width="2.339" height="2.339"/>
	<rect x="469.581" y="151.394" fill="#DBDBDB" width="2.339" height="2.339"/>
	<rect x="466.266" y="172.599" fill="#DBDBDB" width="2.338" height="2.339"/>
	<path fill="#FFFFFF" d="M465.96,185.441h2.951v-2.951h-2.951V185.441z M466.267,182.797h2.338v2.338h-2.338V182.797z"/>
	<path fill="#FFFFFF" d="M469.275,185.441h2.952v-2.951h-2.952V185.441z M469.581,182.797h2.339v2.338h-2.339V182.797z"/>
	<path fill="#B3B3B3" d="M467.446,189.14c-0.598,0-1.082,0.485-1.082,1.082s0.484,1.082,1.082,1.082
		c0.597,0,1.081-0.485,1.081-1.082S468.043,189.14,467.446,189.14z"/>
	<path fill="#B3B3B3" d="M470.751,189.14c-0.598,0-1.082,0.485-1.082,1.082s0.484,1.082,1.082,1.082
		c0.597,0,1.081-0.485,1.081-1.082S471.348,189.14,470.751,189.14z"/>
	<rect x="466.123" y="185.985" fill="#FFFFFF" width="2.645" height="2.645"/>
	<rect x="469.438" y="185.985" fill="#FFFFFF" width="2.645" height="2.645"/>
	<path fill="#FFFFFF" d="M468.91,172.292h-2.951v2.952h2.951V172.292z M468.604,174.938h-2.338v-2.339h2.338V174.938z"/>
	<path fill="#FFFFFF" d="M469.275,175.244h2.952v-2.952h-2.952V175.244z M469.581,172.599h2.339v2.339h-2.339V172.599z"/>
	<path fill="#B3B3B3" d="M466.364,180.025c0,0.597,0.484,1.082,1.082,1.082c0.597,0,1.081-0.485,1.081-1.082
		c0-0.597-0.484-1.082-1.081-1.082C466.848,178.943,466.364,179.428,466.364,180.025z"/>
	<path fill="#B3B3B3" d="M469.669,180.025c0,0.597,0.484,1.082,1.082,1.082c0.597,0,1.081-0.485,1.081-1.082
		c0-0.597-0.484-1.082-1.081-1.082C470.152,178.943,469.669,179.428,469.669,180.025z"/>
	<rect x="466.123" y="175.788" fill="#FFFFFF" width="2.645" height="2.645"/>
	<rect x="469.438" y="175.788" fill="#FFFFFF" width="2.645" height="2.645"/>
	<path fill="#FFFFFF" d="M468.91,161.835h-2.951v2.952h2.951V161.835z M468.604,164.48h-2.338v-2.339h2.338V164.48z"/>
	<path fill="#FFFFFF" d="M469.275,164.787h2.952v-2.952h-2.952V164.787z M469.581,162.142h2.339v2.339h-2.339V162.142z"/>
	<path fill="#B3B3B3" d="M466.364,169.567c0,0.597,0.484,1.082,1.082,1.082c0.597,0,1.081-0.485,1.081-1.082
		s-0.484-1.082-1.081-1.082C466.848,168.485,466.364,168.97,466.364,169.567z"/>
	<path fill="#B3B3B3" d="M469.669,169.567c0,0.597,0.484,1.082,1.082,1.082c0.597,0,1.081-0.485,1.081-1.082
		s-0.484-1.082-1.081-1.082C470.152,168.485,469.669,168.97,469.669,169.567z"/>
	<rect x="466.123" y="165.329" fill="#FFFFFF" width="2.645" height="2.645"/>
	<rect x="469.438" y="165.329" fill="#FFFFFF" width="2.645" height="2.645"/>
	<path fill="#FFFFFF" d="M465.96,154.039h2.951v-2.952h-2.951V154.039z M466.267,151.394h2.338v2.339h-2.338V151.394z"/>
	<path fill="#FFFFFF" d="M469.275,154.039h2.952v-2.952h-2.952V154.039z M469.581,151.394h2.339v2.339h-2.339V151.394z"/>
	<path fill="#B3B3B3" d="M466.364,158.82c0,0.597,0.484,1.082,1.082,1.082c0.597,0,1.081-0.485,1.081-1.082
		s-0.484-1.082-1.081-1.082C466.848,157.738,466.364,158.223,466.364,158.82z"/>
	<path fill="#B3B3B3" d="M469.669,158.82c0,0.597,0.484,1.082,1.082,1.082c0.597,0,1.081-0.485,1.081-1.082
		s-0.484-1.082-1.081-1.082C470.153,157.738,469.669,158.223,469.669,158.82z"/>
	<rect x="466.123" y="154.583" fill="#FFFFFF" width="2.645" height="2.645"/>
	<rect x="469.438" y="154.583" fill="#FFFFFF" width="2.645" height="2.645"/>
	<path fill="#FFFFFF" d="M467.434,149.968c0.597,0,1.081-0.485,1.081-1.082c0-0.597-0.484-1.082-1.081-1.082
		c-0.598,0-1.082,0.485-1.082,1.082C466.352,149.483,466.836,149.968,467.434,149.968z"/>
	<path fill="#FFFFFF" d="M470.739,149.968c0.597,0,1.081-0.485,1.081-1.082c0-0.597-0.484-1.082-1.081-1.082
		c-0.598,0-1.082,0.485-1.082,1.082C469.657,149.483,470.141,149.968,470.739,149.968z"/>
	<path fill="#B3B3B3" d="M467.446,147.415c0.597,0,1.081-0.485,1.081-1.082s-0.484-1.082-1.081-1.082
		c-0.598,0-1.082,0.485-1.082,1.082S466.848,147.415,467.446,147.415z"/>
	<path fill="#B3B3B3" d="M470.751,147.415c0.597,0,1.081-0.485,1.081-1.082s-0.484-1.082-1.081-1.082
		c-0.598,0-1.082,0.485-1.082,1.082S470.152,147.415,470.751,147.415z"/>
	<path fill="#9C9C9C" d="M463.103,192.574v-48.393h-3.331c-1.106,0-2.212,1.029-2.212,2.211v43.793c0,1.283,1.106,2.389,2.394,2.389
		H463.103z M458.949,145.811c0-0.34,0.275-0.615,0.615-0.615h1.536c0.339,0,0.614,0.275,0.614,0.615v1.536
		c0,0.339-0.275,0.615-0.614,0.615h-1.536c-0.34,0-0.615-0.276-0.615-0.615V145.811z M458.949,149.601
		c0-0.34,0.275-0.615,0.615-0.615h1.536c0.339,0,0.614,0.275,0.614,0.615v1.536c0,0.339-0.275,0.615-0.614,0.615h-1.536
		c-0.34,0-0.615-0.276-0.615-0.615V149.601z M458.949,154.926v-1.536c0-0.34,0.275-0.615,0.615-0.615h1.536
		c0.339,0,0.614,0.275,0.614,0.615v1.536c0,0.339-0.275,0.615-0.614,0.615h-1.536C459.224,155.541,458.949,155.265,458.949,154.926z
		"/>
	<path fill="#FFFFFF" d="M459.564,147.962h1.536c0.339,0,0.614-0.276,0.614-0.615v-1.536c0-0.34-0.275-0.615-0.614-0.615h-1.536
		c-0.34,0-0.615,0.275-0.615,0.615v1.536C458.949,147.686,459.224,147.962,459.564,147.962z"/>
	<path fill="#D72420" d="M459.564,151.752h1.536c0.339,0,0.614-0.276,0.614-0.615v-1.536c0-0.34-0.275-0.615-0.614-0.615h-1.536
		c-0.34,0-0.615,0.275-0.615,0.615v1.536C458.949,151.476,459.224,151.752,459.564,151.752z"/>
	<path fill="#FFFFFF" d="M461.714,154.926v-1.536c0-0.34-0.275-0.615-0.614-0.615h-1.536c-0.34,0-0.615,0.275-0.615,0.615v1.536
		c0,0.339,0.275,0.615,0.615,0.615h1.536C461.439,155.541,461.714,155.265,461.714,154.926z"/>
</g>
<rect x="485.936" y="144.008" fill="#FFFFFF" width="3.687" height="48.517"/>
<g>
	<rect x="489.777" y="162.142" fill="#DBDBDB" width="2.339" height="2.339"/>
	<rect x="493.093" y="162.142" fill="#DBDBDB" width="2.339" height="2.339"/>
	<rect x="493.093" y="172.599" fill="#DBDBDB" width="2.339" height="2.339"/>
	<path fill="#DBDBDB" d="M494.699,144.181h-6.391v48.393h6.391c1.106,0,2.212-1.106,2.212-2.211v-43.971
		C496.91,145.287,495.805,144.181,494.699,144.181z M494.262,145.251c0.597,0,1.081,0.485,1.081,1.082s-0.484,1.082-1.081,1.082
		c-0.598,0-1.082-0.485-1.082-1.082S493.664,145.251,494.262,145.251z M494.251,147.804c0.597,0,1.081,0.485,1.081,1.082
		c0,0.597-0.484,1.082-1.081,1.082c-0.598,0-1.082-0.485-1.082-1.082C493.169,148.289,493.653,147.804,494.251,147.804z
		 M490.957,145.251c0.597,0,1.081,0.485,1.081,1.082s-0.484,1.082-1.081,1.082c-0.598,0-1.082-0.485-1.082-1.082
		S490.359,145.251,490.957,145.251z M490.946,147.804c0.597,0,1.081,0.485,1.081,1.082c0,0.597-0.484,1.082-1.081,1.082
		c-0.598,0-1.082-0.485-1.082-1.082C489.864,148.289,490.348,147.804,490.946,147.804z M489.47,161.835h2.952v2.952h-2.952V161.835z
		 M489.635,157.228v-2.645h2.645v2.645H489.635z M492.039,158.82c0,0.597-0.484,1.082-1.081,1.082c-0.598,0-1.082-0.485-1.082-1.082
		s0.484-1.082,1.082-1.082C491.555,157.738,492.039,158.223,492.039,158.82z M489.635,167.974v-2.645h2.645v2.645H489.635z
		 M492.038,169.567c0,0.597-0.484,1.082-1.081,1.082c-0.598,0-1.082-0.485-1.082-1.082s0.484-1.082,1.082-1.082
		C491.554,168.485,492.038,168.97,492.038,169.567z M489.47,172.292h2.952v2.952h-2.952V172.292z M489.635,178.433v-2.645h2.645
		v2.645H489.635z M492.038,180.025c0,0.597-0.484,1.082-1.081,1.082c-0.598,0-1.082-0.485-1.082-1.082
		c0-0.597,0.484-1.082,1.082-1.082C491.554,178.943,492.038,179.428,492.038,180.025z M490.958,191.304
		c-0.598,0-1.082-0.485-1.082-1.082s0.484-1.082,1.082-1.082c0.597,0,1.081,0.485,1.081,1.082S491.555,191.304,490.958,191.304z
		 M492.28,188.63h-2.645v-2.645h2.645V188.63z M492.423,185.441h-2.951v-2.951h2.951V185.441z M492.423,154.039h-2.951v-2.952h2.951
		V154.039z M494.263,191.304c-0.598,0-1.082-0.485-1.082-1.082s0.484-1.082,1.082-1.082c0.597,0,1.081,0.485,1.081,1.082
		S494.86,191.304,494.263,191.304z M495.595,188.63h-2.645v-2.645h2.645V188.63z M495.739,185.441h-2.952v-2.951h2.952V185.441z
		 M492.95,178.433v-2.645h2.645v2.645H492.95z M495.343,180.025c0,0.597-0.484,1.082-1.081,1.082c-0.598,0-1.082-0.485-1.082-1.082
		c0-0.597,0.484-1.082,1.082-1.082C494.859,178.943,495.343,179.428,495.343,180.025z M495.739,175.244h-2.952v-2.952h2.952V175.244
		z M492.95,167.974v-2.645h2.645v2.645H492.95z M495.343,169.567c0,0.597-0.484,1.082-1.081,1.082c-0.598,0-1.082-0.485-1.082-1.082
		s0.484-1.082,1.082-1.082C494.859,168.485,495.343,168.97,495.343,169.567z M495.739,164.787h-2.952v-2.952h2.952V164.787z
		 M492.95,157.228v-2.645h2.645v2.645H492.95z M495.344,158.82c0,0.597-0.484,1.082-1.081,1.082c-0.598,0-1.082-0.485-1.082-1.082
		s0.484-1.082,1.082-1.082C494.86,157.738,495.344,158.223,495.344,158.82z M495.739,154.039h-2.952v-2.952h2.952V154.039z"/>
	<rect x="489.779" y="151.394" fill="#DBDBDB" width="2.338" height="2.339"/>
	<rect x="493.093" y="151.394" fill="#DBDBDB" width="2.339" height="2.339"/>
	<rect x="489.779" y="182.797" fill="#DBDBDB" width="2.338" height="2.338"/>
	<rect x="493.093" y="182.797" fill="#DBDBDB" width="2.339" height="2.338"/>
	<rect x="489.777" y="172.599" fill="#DBDBDB" width="2.339" height="2.339"/>
	<path fill="#FFFFFF" d="M489.472,185.441h2.951v-2.951h-2.951V185.441z M489.779,182.797h2.338v2.338h-2.338V182.797z"/>
	<path fill="#FFFFFF" d="M492.786,185.441h2.952v-2.951h-2.952V185.441z M493.093,182.797h2.339v2.338h-2.339V182.797z"/>
	<path fill="#B3B3B3" d="M490.958,189.14c-0.598,0-1.082,0.485-1.082,1.082s0.484,1.082,1.082,1.082
		c0.597,0,1.081-0.485,1.081-1.082S491.555,189.14,490.958,189.14z"/>
	<path fill="#B3B3B3" d="M494.263,189.14c-0.598,0-1.082,0.485-1.082,1.082s0.484,1.082,1.082,1.082
		c0.597,0,1.081-0.485,1.081-1.082S494.86,189.14,494.263,189.14z"/>
	<rect x="489.635" y="185.985" fill="#FFFFFF" width="2.645" height="2.645"/>
	<rect x="492.95" y="185.985" fill="#FFFFFF" width="2.645" height="2.645"/>
	<path fill="#FFFFFF" d="M492.422,172.292h-2.952v2.952h2.952V172.292z M492.116,174.938h-2.339v-2.339h2.339V174.938z"/>
	<path fill="#FFFFFF" d="M492.786,175.244h2.952v-2.952h-2.952V175.244z M493.093,172.599h2.339v2.339h-2.339V172.599z"/>
	<path fill="#B3B3B3" d="M489.875,180.025c0,0.597,0.484,1.082,1.082,1.082c0.597,0,1.081-0.485,1.081-1.082
		c0-0.597-0.484-1.082-1.081-1.082C490.359,178.943,489.875,179.428,489.875,180.025z"/>
	<path fill="#B3B3B3" d="M493.18,180.025c0,0.597,0.484,1.082,1.082,1.082c0.597,0,1.081-0.485,1.081-1.082
		c0-0.597-0.484-1.082-1.081-1.082C493.664,178.943,493.18,179.428,493.18,180.025z"/>
	<rect x="489.635" y="175.788" fill="#FFFFFF" width="2.645" height="2.645"/>
	<rect x="492.95" y="175.788" fill="#FFFFFF" width="2.645" height="2.645"/>
	<path fill="#FFFFFF" d="M492.422,161.835h-2.952v2.952h2.952V161.835z M492.116,164.48h-2.339v-2.339h2.339V164.48z"/>
	<path fill="#FFFFFF" d="M492.786,164.787h2.952v-2.952h-2.952V164.787z M493.093,162.142h2.339v2.339h-2.339V162.142z"/>
	<path fill="#B3B3B3" d="M489.875,169.567c0,0.597,0.484,1.082,1.082,1.082c0.597,0,1.081-0.485,1.081-1.082
		s-0.484-1.082-1.081-1.082C490.359,168.485,489.875,168.97,489.875,169.567z"/>
	<path fill="#B3B3B3" d="M493.18,169.567c0,0.597,0.484,1.082,1.082,1.082c0.597,0,1.081-0.485,1.081-1.082
		s-0.484-1.082-1.081-1.082C493.664,168.485,493.18,168.97,493.18,169.567z"/>
	<rect x="489.635" y="165.329" fill="#FFFFFF" width="2.645" height="2.645"/>
	<rect x="492.95" y="165.329" fill="#FFFFFF" width="2.645" height="2.645"/>
	<path fill="#FFFFFF" d="M489.472,154.039h2.951v-2.952h-2.951V154.039z M489.779,151.394h2.338v2.339h-2.338V151.394z"/>
	<path fill="#FFFFFF" d="M492.786,154.039h2.952v-2.952h-2.952V154.039z M493.093,151.394h2.339v2.339h-2.339V151.394z"/>
	<path fill="#B3B3B3" d="M489.876,158.82c0,0.597,0.484,1.082,1.082,1.082c0.597,0,1.081-0.485,1.081-1.082
		s-0.484-1.082-1.081-1.082C490.36,157.738,489.876,158.223,489.876,158.82z"/>
	<path fill="#B3B3B3" d="M493.181,158.82c0,0.597,0.484,1.082,1.082,1.082c0.597,0,1.081-0.485,1.081-1.082
		s-0.484-1.082-1.081-1.082C493.665,157.738,493.181,158.223,493.181,158.82z"/>
	<rect x="489.635" y="154.583" fill="#FFFFFF" width="2.645" height="2.645"/>
	<rect x="492.95" y="154.583" fill="#FFFFFF" width="2.645" height="2.645"/>
	<path fill="#FFFFFF" d="M490.946,149.968c0.597,0,1.081-0.485,1.081-1.082c0-0.597-0.484-1.082-1.081-1.082
		c-0.598,0-1.082,0.485-1.082,1.082C489.864,149.483,490.348,149.968,490.946,149.968z"/>
	<path fill="#FFFFFF" d="M494.251,149.968c0.597,0,1.081-0.485,1.081-1.082c0-0.597-0.484-1.082-1.081-1.082
		c-0.598,0-1.082,0.485-1.082,1.082C493.169,149.483,493.653,149.968,494.251,149.968z"/>
	<path fill="#B3B3B3" d="M490.957,147.415c0.597,0,1.081-0.485,1.081-1.082s-0.484-1.082-1.081-1.082
		c-0.598,0-1.082,0.485-1.082,1.082S490.359,147.415,490.957,147.415z"/>
	<path fill="#B3B3B3" d="M494.262,147.415c0.597,0,1.081-0.485,1.081-1.082s-0.484-1.082-1.081-1.082
		c-0.598,0-1.082,0.485-1.082,1.082S493.664,147.415,494.262,147.415z"/>
	<path fill="#9C9C9C" d="M486.615,192.574v-48.393h-3.331c-1.106,0-2.212,1.029-2.212,2.211v43.793c0,1.283,1.106,2.389,2.394,2.389
		H486.615z M482.46,145.811c0-0.34,0.275-0.615,0.615-0.615h1.536c0.339,0,0.614,0.275,0.614,0.615v1.536
		c0,0.339-0.275,0.615-0.614,0.615h-1.536c-0.34,0-0.615-0.276-0.615-0.615V145.811z M482.46,149.601
		c0-0.34,0.275-0.615,0.615-0.615h1.536c0.339,0,0.614,0.275,0.614,0.615v1.536c0,0.339-0.275,0.615-0.614,0.615h-1.536
		c-0.34,0-0.615-0.276-0.615-0.615V149.601z M482.46,154.926v-1.536c0-0.34,0.275-0.615,0.615-0.615h1.536
		c0.339,0,0.614,0.275,0.614,0.615v1.536c0,0.339-0.275,0.615-0.614,0.615h-1.536C482.735,155.541,482.46,155.265,482.46,154.926z"
		/>
	<path fill="#FFFFFF" d="M483.075,147.962h1.536c0.339,0,0.614-0.276,0.614-0.615v-1.536c0-0.34-0.275-0.615-0.614-0.615h-1.536
		c-0.34,0-0.615,0.275-0.615,0.615v1.536C482.46,147.686,482.735,147.962,483.075,147.962z"/>
	<path fill="#D72420" d="M483.075,151.752h1.536c0.339,0,0.614-0.276,0.614-0.615v-1.536c0-0.34-0.275-0.615-0.614-0.615h-1.536
		c-0.34,0-0.615,0.275-0.615,0.615v1.536C482.46,151.476,482.735,151.752,483.075,151.752z"/>
	<path fill="#FFFFFF" d="M485.225,154.926v-1.536c0-0.34-0.275-0.615-0.614-0.615h-1.536c-0.34,0-0.615,0.275-0.615,0.615v1.536
		c0,0.339,0.275,0.615,0.615,0.615h1.536C484.95,155.541,485.225,155.265,485.225,154.926z"/>
</g>
<polygon fill="#FFFFFF" points="112.66,66.519 112.349,67.684 102.716,72.109 101.484,73.072 101.673,73.768 188.173,73.768 
	188.498,73.072 186.772,72.109 177.14,67.684 176.829,66.519 "/>
<g>
	<path fill="#999999" d="M113.343,28.991l-0.683,37.528h64.17l-0.682-37.528c0,0-0.135-2.03-2.702-2.04h-57.402
		C113.478,26.961,113.343,28.991,113.343,28.991z M144.743,66.392c-1.02,0-1.848-0.829-1.848-1.85c0-1.021,0.828-1.85,1.848-1.85
		c1.021,0,1.851,0.829,1.851,1.85C146.594,65.563,145.764,66.392,144.743,66.392z M172.416,31.078l0.571,31.488l-56.485,0.002
		l0.584-31.49H172.416z"/>
	<polygon fill="#E6E6E6" points="172.987,62.566 172.416,31.078 117.086,31.078 116.502,62.568 	"/>
	<path fill="#808080" d="M186.187,73.549h-82.39c-0.356,0-2.022,0.124-2.312-0.477c-0.059,0.618,0.237,2.15,1.41,2.406
		c0.965,0.201,2.451,0.217,3.848,0.277h76.498c1.398-0.06,2.884-0.076,3.849-0.277c1.171-0.256,1.469-1.788,1.408-2.406
		C188.211,73.673,186.544,73.549,186.187,73.549z"/>
	<path fill="#DADADA" d="M103.524,72.369h82.443c0.296,0,0.659-0.06,0.743-0.121l0.064-0.14l-9.634-4.424h-64.79l-9.633,4.424
		l0.063,0.14C102.866,72.309,103.227,72.369,103.524,72.369z M114.018,70.062l1.987-0.836c0.534-0.224,1.445-0.409,2.025-0.409
		h53.382c0.579,0,1.492,0.182,2.025,0.406l2.034,0.843c0.534,0.223,0.498,0.405-0.08,0.405H114.1
		C113.52,70.471,113.482,70.286,114.018,70.062z"/>
	<path fill="#808080" d="M175.391,70.471c0.578,0,0.614-0.182,0.08-0.405l-2.034-0.843c-0.533-0.224-1.446-0.406-2.025-0.406H118.03
		c-0.58,0-1.491,0.185-2.025,0.409l-1.987,0.836c-0.536,0.224-0.498,0.409,0.082,0.409H175.391z"/>
	<path fill="#FFFFFF" d="M144.743,62.692c-1.02,0-1.848,0.829-1.848,1.85c0,1.021,0.828,1.85,1.848,1.85
		c1.021,0,1.851-0.829,1.851-1.85C146.594,63.521,145.764,62.692,144.743,62.692z M144.743,65.409c-0.477,0-0.866-0.389-0.866-0.867
		c0-0.478,0.389-0.867,0.866-0.867c0.479,0,0.869,0.389,0.869,0.867C145.612,65.02,145.222,65.409,144.743,65.409z"/>
	<path fill="#DC291A" d="M144.743,63.675c-0.477,0-0.866,0.389-0.866,0.867c0,0.478,0.389,0.867,0.866,0.867
		c0.479,0,0.869-0.389,0.869-0.867C145.612,64.064,145.222,63.675,144.743,63.675z"/>
</g>
<g>
	<path fill="#DC291A" d="M89.721,14.607c-0.396,0.207-0.99,0.27-1.432,0.27c-1.899,0-3.088-1.224-3.088-3.097
		c0-1.791,1.261-3.097,3.088-3.097c0.432,0,1.018,0.063,1.414,0.234l-0.054,0.639c-0.387-0.18-0.9-0.261-1.323-0.261
		c-1.485,0-2.376,1.071-2.376,2.484c0,1.477,0.855,2.485,2.368,2.485c0.459,0,0.927-0.055,1.35-0.262L89.721,14.607z"/>
	<path fill="#DC291A" d="M90.404,11.78c0-1.656,0.892-3.097,2.701-3.097c1.845,0,2.701,1.396,2.701,3.097
		c0,1.666-0.891,3.097-2.701,3.097c-0.459,0-0.864-0.081-1.207-0.242C90.89,14.148,90.404,13.077,90.404,11.78z M93.105,14.283
		c1.404,0,1.944-1.287,1.944-2.503c0-1.215-0.54-2.503-1.944-2.503c-1.377,0-1.954,1.306-1.954,2.503
		c0,0.604,0.144,1.225,0.459,1.702C91.934,13.959,92.42,14.283,93.105,14.283z"/>
	<path fill="#DC291A" d="M97.019,14.778V8.773h1.566c1.918,0,3.106,0.963,3.106,2.917c0,2.125-1.449,3.088-3.439,3.088H97.019z
		 M97.73,14.193h0.504c1.693,0,2.71-0.747,2.71-2.503c0-1.513-0.864-2.332-2.386-2.332H97.73V14.193z"/>
	<path fill="#DC291A" d="M102.878,14.778V8.773h3.097v0.585h-2.386v2.053h2.269v0.567h-2.269v2.215h2.484v0.585H102.878z"/>
	<path fill="#DC291A" d="M107,13.932c0.423,0.262,0.882,0.352,1.386,0.352c0.685,0,1.225-0.297,1.225-1.09
		c0-0.63-0.477-0.927-1.035-1.215l-0.486-0.261c-0.576-0.315-1.035-0.685-1.035-1.477c0-1.09,0.963-1.558,1.936-1.558
		c0.423,0,0.792,0.063,1.161,0.216l-0.081,0.64c-0.324-0.181-0.702-0.262-1.071-0.262c-0.63,0-1.215,0.217-1.215,0.937
		c0,0.495,0.36,0.774,0.837,1.026l0.486,0.261c0.675,0.36,1.243,0.729,1.243,1.647c0,1.126-0.927,1.729-1.954,1.729
		c-0.513,0-1.018-0.071-1.477-0.278L107,13.932z"/>
	<path fill="#DC291A" d="M112.967,14.778v-2.503l-2.214-3.502h0.792l1.801,2.926l1.8-2.926h0.766l-2.233,3.502v2.503H112.967z"/>
	<path fill="#DC291A" d="M116.431,13.932c0.423,0.262,0.882,0.352,1.386,0.352c0.685,0,1.225-0.297,1.225-1.09
		c0-0.63-0.477-0.927-1.035-1.215l-0.486-0.261c-0.576-0.315-1.035-0.685-1.035-1.477c0-1.09,0.963-1.558,1.936-1.558
		c0.423,0,0.792,0.063,1.161,0.216l-0.081,0.64c-0.324-0.181-0.702-0.262-1.071-0.262c-0.63,0-1.215,0.217-1.215,0.937
		c0,0.495,0.36,0.774,0.837,1.026l0.486,0.261c0.675,0.36,1.243,0.729,1.243,1.647c0,1.126-0.927,1.729-1.954,1.729
		c-0.513,0-1.018-0.071-1.477-0.278L116.431,13.932z"/>
	<path fill="#DC291A" d="M123.001,14.778V8.773h1.566c1.918,0,3.106,0.963,3.106,2.917c0,2.125-1.449,3.088-3.439,3.088H123.001z
		 M123.713,14.193h0.504c1.693,0,2.71-0.747,2.71-2.503c0-1.513-0.864-2.332-2.386-2.332h-0.828V14.193z"/>
	<path fill="#DC291A" d="M129.148,12.617c0,0.865,0.459,1.729,1.584,1.729c0.432,0,0.9-0.126,1.233-0.342l0.027,0.585
		c-0.387,0.189-0.837,0.288-1.26,0.288c-1.548,0-2.269-1.017-2.269-2.358c0-1.144,0.657-2.313,1.999-2.313
		c1.396,0,1.792,1.116,1.792,2.305v0.107H129.148z M131.615,12.132c-0.045-0.612-0.27-1.404-1.143-1.404
		c-0.855,0-1.297,0.765-1.324,1.404H131.615z"/>
	<path fill="#DC291A" d="M134.116,14.778l-1.503-4.483h0.711l1.198,3.907l1.206-3.907h0.684l-1.521,4.483H134.116z"/>
	<path fill="#DC291A" d="M137.554,12.617c0,0.865,0.459,1.729,1.584,1.729c0.432,0,0.9-0.126,1.233-0.342l0.027,0.585
		c-0.387,0.189-0.837,0.288-1.26,0.288c-1.548,0-2.269-1.017-2.269-2.358c0-1.144,0.657-2.313,1.999-2.313
		c1.396,0,1.792,1.116,1.792,2.305v0.107H137.554z M140.021,12.132c-0.045-0.612-0.27-1.404-1.143-1.404
		c-0.855,0-1.297,0.765-1.324,1.404H140.021z"/>
	<path fill="#DC291A" d="M141.577,14.778V8.287h0.657v6.491H141.577z"/>
	<path fill="#DC291A" d="M143.269,12.519c0-1.287,0.765-2.313,2.098-2.313c1.404,0,2.098,0.99,2.098,2.313
		c0,1.297-0.711,2.358-2.098,2.358c-0.351,0-0.657-0.063-0.918-0.18C143.665,14.319,143.269,13.5,143.269,12.519z M145.367,14.328
		c0.981,0,1.396-0.945,1.396-1.81c0-0.9-0.387-1.765-1.396-1.765c-0.99,0-1.396,0.9-1.396,1.765c0,0.433,0.099,0.883,0.324,1.233
		C144.521,14.085,144.872,14.328,145.367,14.328z"/>
	<path fill="#DC291A" d="M148.498,16.723v-4.924c0-0.531-0.018-1-0.045-1.504h0.621l0.036,0.783
		c0.243-0.531,0.828-0.873,1.422-0.873c1.368,0,1.818,1.125,1.818,2.313c0,1.152-0.495,2.358-1.828,2.358
		c-0.585,0-1.143-0.297-1.368-0.828v2.674H148.498z M150.398,14.319c1,0,1.243-0.981,1.243-1.801c0-0.828-0.225-1.756-1.243-1.756
		c-0.936,0-1.269,0.964-1.269,1.756c0,0.396,0.081,0.837,0.27,1.197C149.606,14.067,149.921,14.319,150.398,14.319z"/>
	<path fill="#DC291A" d="M153.385,14.778v-3.43c0-0.352-0.009-0.702-0.045-1.054h0.603l0.027,0.774
		c0.297-0.576,0.748-0.864,1.342-0.864c0.747,0,1.179,0.468,1.305,0.937c0.216-0.559,0.783-0.937,1.359-0.937
		c0.909,0,1.396,0.657,1.396,1.521v3.052h-0.657v-2.935c0-0.604-0.216-1.081-0.891-1.081c-0.819,0-1.117,0.811-1.117,1.594v2.422
		h-0.657v-2.935c0-0.604-0.207-1.081-0.882-1.081c-0.829,0-1.125,0.811-1.125,1.594v2.422H153.385z"/>
	<path fill="#DC291A" d="M161.071,12.617c0,0.865,0.459,1.729,1.584,1.729c0.432,0,0.9-0.126,1.233-0.342l0.027,0.585
		c-0.387,0.189-0.837,0.288-1.26,0.288c-1.548,0-2.269-1.017-2.269-2.358c0-1.144,0.657-2.313,1.999-2.313
		c1.396,0,1.792,1.116,1.792,2.305v0.107H161.071z M163.538,12.132c-0.045-0.612-0.27-1.404-1.143-1.404
		c-0.855,0-1.297,0.765-1.324,1.404H163.538z"/>
	<path fill="#DC291A" d="M165.094,14.778v-3.43c0-0.352-0.009-0.702-0.045-1.054h0.603l0.027,0.774
		c0.315-0.576,0.801-0.864,1.45-0.864c1.152,0,1.503,0.756,1.503,1.791v2.782h-0.648v-2.656c0-0.711-0.144-1.359-1.008-1.359
		c-0.936,0-1.224,0.811-1.224,1.603v2.413H165.094z"/>
	<path fill="#DC291A" d="M172.052,14.742c-0.225,0.1-0.486,0.135-0.729,0.135c-0.918,0-1.035-0.666-1.035-1.485v-2.583h-0.847
		v-0.514h0.847V9.287l0.648-0.226v1.233h1.017v0.514h-1.017v2.754c0,0.396,0.108,0.748,0.576,0.748c0.18,0,0.333-0.045,0.504-0.117
		L172.052,14.742z"/>
	<path fill="#DC291A" d="M174.706,13.932c0.423,0.262,0.882,0.352,1.386,0.352c0.685,0,1.225-0.297,1.225-1.09
		c0-0.63-0.477-0.927-1.035-1.215l-0.486-0.261c-0.576-0.315-1.035-0.685-1.035-1.477c0-1.09,0.963-1.558,1.936-1.558
		c0.423,0,0.792,0.063,1.161,0.216l-0.081,0.64c-0.324-0.181-0.702-0.262-1.071-0.262c-0.63,0-1.215,0.217-1.215,0.937
		c0,0.495,0.36,0.774,0.837,1.026l0.486,0.261c0.675,0.36,1.243,0.729,1.243,1.647c0,1.126-0.927,1.729-1.954,1.729
		c-0.513,0-1.018-0.071-1.477-0.278L174.706,13.932z"/>
	<path fill="#DC291A" d="M178.665,16.183c0.135,0.045,0.261,0.081,0.405,0.081c0.495,0,0.738-0.72,0.837-1.035l0.09-0.297
		l-1.558-4.637h0.711l1.206,3.862l1.198-3.862h0.684l-1.801,5.267c-0.243,0.693-0.603,1.261-1.287,1.261
		c-0.216,0-0.333-0.027-0.54-0.072L178.665,16.183z"/>
	<path fill="#DC291A" d="M182.787,14.059c0.36,0.188,0.693,0.278,1.099,0.278c0.504,0,0.855-0.243,0.855-0.747
		c0-1.089-1.936-0.774-1.936-2.143c0-0.9,0.748-1.242,1.45-1.242c0.369,0,0.702,0.072,1.017,0.188l-0.09,0.567
		c-0.279-0.135-0.604-0.225-0.918-0.225c-0.351,0-0.801,0.135-0.801,0.675c0,0.9,1.954,0.621,1.954,2.125
		c0,0.864-0.729,1.341-1.521,1.341c-0.432,0-0.828-0.054-1.188-0.207L182.787,14.059z"/>
	<path fill="#DC291A" d="M188.593,14.742c-0.225,0.1-0.486,0.135-0.729,0.135c-0.918,0-1.035-0.666-1.035-1.485v-2.583h-0.847
		v-0.514h0.847V9.287l0.648-0.226v1.233h1.018v0.514h-1.018v2.754c0,0.396,0.108,0.748,0.576,0.748c0.18,0,0.333-0.045,0.504-0.117
		L188.593,14.742z"/>
	<path fill="#DC291A" d="M189.834,12.617c0,0.865,0.459,1.729,1.584,1.729c0.432,0,0.9-0.126,1.233-0.342l0.027,0.585
		c-0.387,0.189-0.837,0.288-1.26,0.288c-1.548,0-2.269-1.017-2.269-2.358c0-1.144,0.657-2.313,1.999-2.313
		c1.396,0,1.792,1.116,1.792,2.305v0.107H189.834z M192.301,12.132c-0.045-0.612-0.27-1.404-1.144-1.404
		c-0.855,0-1.296,0.765-1.323,1.404H192.301z"/>
	<path fill="#DC291A" d="M193.857,14.778v-3.43c0-0.352-0.009-0.702-0.045-1.054h0.603l0.027,0.774
		c0.297-0.576,0.748-0.864,1.342-0.864c0.747,0,1.179,0.468,1.305,0.937c0.216-0.559,0.783-0.937,1.359-0.937
		c0.909,0,1.396,0.657,1.396,1.521v3.052h-0.657v-2.935c0-0.604-0.216-1.081-0.891-1.081c-0.819,0-1.117,0.811-1.117,1.594v2.422
		h-0.657v-2.935c0-0.604-0.207-1.081-0.882-1.081c-0.829,0-1.125,0.811-1.125,1.594v2.422H193.857z"/>
</g>
<rect x="12.811" y="8.289" fill="none" width="488.454" height="237.203"/>
<rect x="234.952" y="48.393" fill="#D9D9D9" width="70.768" height="18.232"/>
<g>
	<path fill="#5A5A59" d="M252.652,60.392v-6.005h0.711v6.005H252.652z"/>
	<path fill="#5A5A59" d="M254.884,60.392v-6.005h3.097v0.585h-2.386v2.053h2.269v0.567h-2.269v2.215h2.485v0.585H254.884z"/>
	<path fill="#5A5A59" d="M263.471,60.221c-0.396,0.207-0.99,0.27-1.432,0.27c-1.899,0-3.088-1.224-3.088-3.097
		c0-1.791,1.261-3.097,3.088-3.097c0.432,0,1.018,0.063,1.414,0.234l-0.054,0.639c-0.387-0.18-0.9-0.261-1.323-0.261
		c-1.485,0-2.376,1.071-2.376,2.484c0,1.477,0.855,2.485,2.368,2.485c0.459,0,0.927-0.055,1.35-0.262L263.471,60.221z"/>
	<path fill="#5A5A59" d="M266.413,60.392V53.9h0.657v6.491H266.413z"/>
	<path fill="#5A5A59" d="M268.375,54.909v-0.783h0.657v0.783H268.375z M268.375,60.392v-4.483h0.657v4.483H268.375z"/>
	<path fill="#5A5A59" d="M270.337,60.392V53.9h0.657v2.764c0.225-0.53,0.81-0.846,1.377-0.846c1.368,0,1.818,1.125,1.818,2.313
		c0,1.152-0.495,2.358-1.828,2.358c-0.621,0-1.116-0.27-1.404-0.846l-0.018,0.747H270.337z M272.236,59.933
		c1,0,1.243-0.981,1.243-1.801c0-0.828-0.225-1.756-1.243-1.756c-0.936,0-1.269,0.964-1.269,1.756c0,0.396,0.081,0.837,0.27,1.197
		C271.444,59.681,271.759,59.933,272.236,59.933z"/>
	<path fill="#5A5A59" d="M275.223,60.392v-3.43c0-0.352-0.009-0.702-0.045-1.054h0.604l0.036,0.847
		c0.171-0.46,0.64-0.937,1.188-0.937c0.135,0,0.242,0,0.378,0.036l-0.036,0.657c-0.117-0.036-0.243-0.055-0.359-0.055
		c-0.91,0-1.107,1.009-1.107,1.711v2.224H275.223z"/>
	<path fill="#5A5A59" d="M280.606,60.392l-0.026-0.72c-0.261,0.576-0.828,0.818-1.396,0.818c-0.801,0-1.467-0.423-1.467-1.332
		c0-1.152,1.008-1.494,2.322-1.494h0.504v-0.217c0-0.684-0.261-1.106-1.008-1.106c-0.459,0-0.883,0.126-1.27,0.378l-0.055-0.585
		c0.388-0.189,0.928-0.315,1.352-0.315c1.125,0,1.629,0.549,1.629,1.675v1.944c0,0.333,0.009,0.639,0.054,0.954H280.606z
		 M280.21,58.141c-0.837,0-1.818,0.09-1.818,0.99c0,0.604,0.423,0.828,0.864,0.828c0.954,0,1.287-0.72,1.287-1.548v-0.271H280.21z"
		/>
	<path fill="#5A5A59" d="M282.504,60.392v-3.43c0-0.352-0.009-0.702-0.045-1.054h0.604l0.036,0.847
		c0.171-0.46,0.64-0.937,1.188-0.937c0.135,0,0.242,0,0.378,0.036l-0.036,0.657c-0.117-0.036-0.243-0.055-0.359-0.055
		c-0.91,0-1.107,1.009-1.107,1.711v2.224H282.504z"/>
	<path fill="#5A5A59" d="M285.132,61.796c0.136,0.045,0.261,0.081,0.405,0.081c0.495,0,0.738-0.72,0.838-1.035l0.09-0.297
		l-1.559-4.637h0.712l1.206,3.862l1.197-3.862h0.685l-1.801,5.267c-0.243,0.693-0.603,1.261-1.287,1.261
		c-0.216,0-0.333-0.027-0.54-0.072L285.132,61.796z"/>
</g>
<rect x="160.449" y="90.817" fill="#D9D9D9" width="70.768" height="18.232"/>
<g>
	<path fill="#5A5A59" d="M175.698,103.178v-6.005h1.594c0.981,0,1.926,0.352,1.926,1.485c0,0.747-0.441,1.207-1.152,1.378
		c0.756,0.116,1.324,0.639,1.324,1.431c0,1.378-1.18,1.711-2.332,1.711H175.698z M176.4,99.793h0.675
		c0.729,0,1.414-0.243,1.414-1.09c0-0.756-0.63-0.972-1.27-0.972H176.4V99.793z M176.4,102.619h0.639
		c0.756,0,1.612-0.197,1.612-1.125c0-1.008-0.909-1.17-1.71-1.17H176.4V102.619z"/>
	<path fill="#5A5A59" d="M180.531,97.695v-0.783h0.657v0.783H180.531z M180.531,103.178v-4.483h0.657v4.483H180.531z"/>
	<path fill="#5A5A59" d="M182.492,103.178v-3.43c0-0.352-0.009-0.702-0.045-1.054h0.603l0.027,0.774
		c0.315-0.576,0.801-0.864,1.45-0.864c1.152,0,1.503,0.756,1.503,1.791v2.782h-0.648v-2.656c0-0.711-0.144-1.359-1.008-1.359
		c-0.936,0-1.224,0.811-1.224,1.603v2.413H182.492z"/>
	<path fill="#5A5A59" d="M189.882,103.178l-0.027-0.721c-0.261,0.576-0.828,0.819-1.396,0.819c-0.801,0-1.467-0.423-1.467-1.332
		c0-1.152,1.008-1.494,2.323-1.494h0.504v-0.217c0-0.684-0.261-1.106-1.008-1.106c-0.459,0-0.882,0.126-1.269,0.378l-0.054-0.585
		c0.387-0.189,0.927-0.315,1.351-0.315c1.125,0,1.629,0.549,1.629,1.675v1.944c0,0.333,0.009,0.639,0.054,0.954H189.882z
		 M189.486,100.927c-0.837,0-1.818,0.091-1.818,0.99c0,0.604,0.423,0.829,0.864,0.829c0.954,0,1.287-0.721,1.287-1.549v-0.271
		H189.486z"/>
	<path fill="#5A5A59" d="M191.781,103.178v-3.43c0-0.352-0.009-0.702-0.045-1.054h0.603l0.036,0.847
		c0.171-0.46,0.639-0.937,1.188-0.937c0.135,0,0.243,0,0.378,0.036l-0.036,0.657c-0.117-0.036-0.243-0.055-0.36-0.055
		c-0.909,0-1.107,1.009-1.107,1.711v2.224H191.781z"/>
	<path fill="#5A5A59" d="M194.408,104.582c0.135,0.045,0.261,0.081,0.405,0.081c0.495,0,0.738-0.72,0.837-1.035l0.09-0.297
		l-1.558-4.637h0.711l1.206,3.862l1.198-3.862h0.684l-1.801,5.267c-0.243,0.693-0.603,1.261-1.287,1.261
		c-0.216,0-0.333-0.027-0.54-0.072L194.408,104.582z"/>
	<path fill="#5A5A59" d="M203.715,103.105c-0.387,0.136-0.765,0.171-1.161,0.171c-1.377,0-2.143-1.053-2.143-2.358
		c0-1.332,0.837-2.313,2.206-2.313c0.369,0,0.747,0.072,1.098,0.188l-0.054,0.586c-0.288-0.136-0.612-0.226-0.937-0.226
		c-1.08,0-1.611,0.757-1.611,1.765c0,0.945,0.531,1.81,1.566,1.81c0.351,0,0.675-0.072,0.99-0.207L203.715,103.105z"/>
	<path fill="#5A5A59" d="M204.398,100.918c0-1.287,0.765-2.313,2.098-2.313c1.404,0,2.098,0.99,2.098,2.313
		c0,1.297-0.711,2.358-2.098,2.358c-0.351,0-0.657-0.063-0.918-0.18C204.794,102.719,204.398,101.899,204.398,100.918z
		 M206.495,102.728c0.981,0,1.396-0.945,1.396-1.81c0-0.9-0.387-1.765-1.396-1.765c-0.99,0-1.396,0.9-1.396,1.765
		c0,0.433,0.099,0.883,0.324,1.233C205.649,102.484,206,102.728,206.495,102.728z"/>
	<path fill="#5A5A59" d="M212.643,103.178l-0.054-0.747c-0.288,0.576-0.783,0.846-1.404,0.846c-1.333,0-1.828-1.206-1.828-2.358
		c0-1.188,0.504-2.313,1.846-2.313c0.567,0,1.125,0.315,1.35,0.846v-2.764h0.657v5.068c0,0.495,0.018,0.955,0.045,1.423H212.643z
		 M211.31,102.719c0.954,0,1.26-1.009,1.26-1.792s-0.333-1.765-1.27-1.765c-1.017,0-1.242,0.937-1.242,1.765
		c0,0.405,0.063,0.855,0.252,1.207C210.5,102.467,210.806,102.719,211.31,102.719z"/>
	<path fill="#5A5A59" d="M214.91,101.018c0,0.863,0.459,1.729,1.584,1.729c0.432,0,0.9-0.127,1.233-0.343l0.027,0.585
		c-0.387,0.189-0.837,0.288-1.26,0.288c-1.548,0-2.269-1.017-2.269-2.358c0-1.144,0.657-2.313,1.999-2.313
		c1.396,0,1.792,1.116,1.792,2.305v0.108H214.91z M217.377,100.531c-0.045-0.612-0.27-1.404-1.143-1.404
		c-0.855,0-1.297,0.765-1.324,1.404H217.377z"/>
</g>
<rect x="262.137" y="155.824" fill="#D9D9D9" width="70.768" height="18.232"/>
<g>
	<path fill="#5A5A59" d="M271.922,167.822v-6.005h1.404c1.198,0,2.152,0.45,2.152,1.675c0,1.332-1.035,1.801-2.26,1.801h-0.585
		v2.529H271.922z M272.624,164.717h0.459c0.909,0,1.656-0.198,1.656-1.216c0-0.828-0.657-1.107-1.54-1.107h-0.576V164.717z"/>
	<path fill="#5A5A59" d="M276.385,167.822v-3.43c0-0.352-0.009-0.702-0.045-1.054h0.604l0.036,0.847
		c0.171-0.46,0.64-0.937,1.188-0.937c0.135,0,0.242,0,0.378,0.036l-0.036,0.657c-0.117-0.036-0.243-0.055-0.359-0.055
		c-0.91,0-1.107,1.009-1.107,1.711v2.224H276.385z"/>
	<path fill="#5A5A59" d="M278.969,165.563c0-1.287,0.765-2.313,2.098-2.313c1.404,0,2.098,0.99,2.098,2.313
		c0,1.297-0.712,2.358-2.098,2.358c-0.352,0-0.658-0.063-0.919-0.18C279.365,167.363,278.969,166.544,278.969,165.563z
		 M281.067,167.372c0.98,0,1.395-0.945,1.395-1.81c0-0.9-0.387-1.765-1.395-1.765c-0.99,0-1.396,0.9-1.396,1.765
		c0,0.433,0.1,0.883,0.324,1.233C280.22,167.129,280.571,167.372,281.067,167.372z"/>
	<path fill="#5A5A59" d="M287.231,167.75c-0.387,0.136-0.765,0.171-1.16,0.171c-1.378,0-2.143-1.053-2.143-2.358
		c0-1.332,0.837-2.313,2.205-2.313c0.369,0,0.747,0.072,1.098,0.188l-0.053,0.586c-0.289-0.136-0.613-0.226-0.938-0.226
		c-1.08,0-1.611,0.757-1.611,1.765c0,0.945,0.531,1.81,1.566,1.81c0.352,0,0.676-0.072,0.99-0.207L287.231,167.75z"/>
	<path fill="#5A5A59" d="M288.58,165.662c0,0.863,0.459,1.729,1.584,1.729c0.433,0,0.9-0.127,1.234-0.343l0.026,0.585
		c-0.387,0.189-0.837,0.288-1.261,0.288c-1.548,0-2.268-1.017-2.268-2.358c0-1.144,0.656-2.313,1.998-2.313
		c1.396,0,1.791,1.116,1.791,2.305v0.108H288.58z M291.047,165.176c-0.045-0.612-0.27-1.404-1.144-1.404
		c-0.854,0-1.296,0.765-1.323,1.404H291.047z"/>
	<path fill="#5A5A59" d="M292.405,167.102c0.361,0.189,0.693,0.279,1.1,0.279c0.504,0,0.854-0.243,0.854-0.747
		c0-1.089-1.936-0.774-1.936-2.143c0-0.9,0.747-1.242,1.45-1.242c0.369,0,0.701,0.072,1.017,0.188l-0.09,0.567
		c-0.279-0.135-0.604-0.225-0.919-0.225c-0.351,0-0.801,0.135-0.801,0.675c0,0.9,1.953,0.621,1.953,2.125
		c0,0.864-0.729,1.341-1.521,1.341c-0.432,0-0.828-0.054-1.188-0.207L292.405,167.102z"/>
	<path fill="#5A5A59" d="M295.907,167.102c0.359,0.189,0.693,0.279,1.098,0.279c0.504,0,0.855-0.243,0.855-0.747
		c0-1.089-1.936-0.774-1.936-2.143c0-0.9,0.747-1.242,1.449-1.242c0.369,0,0.703,0.072,1.018,0.188l-0.09,0.567
		c-0.279-0.135-0.604-0.225-0.918-0.225c-0.352,0-0.802,0.135-0.802,0.675c0,0.9,1.954,0.621,1.954,2.125
		c0,0.864-0.729,1.341-1.521,1.341c-0.433,0-0.828-0.054-1.189-0.207L295.907,167.102z"/>
	<path fill="#5A5A59" d="M301.567,162.34v-0.783h0.658v0.783H301.567z M301.567,167.822v-4.483h0.658v4.483H301.567z"/>
	<path fill="#5A5A59" d="M303.53,167.822v-3.43c0-0.352-0.01-0.702-0.045-1.054h0.603l0.026,0.774
		c0.298-0.576,0.748-0.864,1.342-0.864c0.748,0,1.18,0.468,1.306,0.937c0.216-0.559,0.783-0.937,1.359-0.937
		c0.909,0,1.396,0.657,1.396,1.521v3.052h-0.657v-2.935c0-0.604-0.216-1.081-0.892-1.081c-0.818,0-1.116,0.811-1.116,1.594v2.422
		h-0.657v-2.935c0-0.604-0.207-1.081-0.882-1.081c-0.829,0-1.126,0.811-1.126,1.594v2.422H303.53z"/>
	<path fill="#5A5A59" d="M313.358,167.822l-0.027-0.721c-0.261,0.576-0.828,0.819-1.395,0.819c-0.802,0-1.468-0.423-1.468-1.332
		c0-1.152,1.009-1.494,2.323-1.494h0.504v-0.217c0-0.684-0.262-1.106-1.009-1.106c-0.459,0-0.882,0.126-1.269,0.378l-0.055-0.585
		c0.387-0.189,0.928-0.315,1.351-0.315c1.125,0,1.63,0.549,1.63,1.675v1.944c0,0.333,0.008,0.639,0.053,0.954H313.358z
		 M312.961,165.571c-0.837,0-1.818,0.091-1.818,0.99c0,0.604,0.424,0.829,0.865,0.829c0.953,0,1.287-0.721,1.287-1.549v-0.271
		H312.961z"/>
	<path fill="#5A5A59" d="M315.401,168.992c0.396,0.207,0.837,0.324,1.296,0.324c1.08,0,1.485-0.738,1.485-1.71v-0.576
		c-0.279,0.504-0.819,0.792-1.387,0.792c-1.332,0-1.809-1.152-1.809-2.26c0-1.188,0.504-2.313,1.827-2.313
		c0.64,0,1.116,0.27,1.404,0.846v-0.756h0.621v4.259c0,1.395-0.63,2.269-2.098,2.269c-0.468,0-0.937-0.091-1.396-0.234
		L315.401,168.992z M316.93,167.264c0.964,0,1.27-0.936,1.27-1.692c0-0.783-0.332-1.765-1.26-1.765
		c-1.008,0-1.252,0.937-1.252,1.765c0,0.388,0.063,0.811,0.244,1.135C316.12,167.03,316.426,167.264,316.93,167.264z"/>
	<path fill="#5A5A59" d="M320.539,165.662c0,0.863,0.459,1.729,1.584,1.729c0.433,0,0.9-0.127,1.234-0.343l0.026,0.585
		c-0.387,0.189-0.837,0.288-1.261,0.288c-1.548,0-2.268-1.017-2.268-2.358c0-1.144,0.656-2.313,1.998-2.313
		c1.396,0,1.791,1.116,1.791,2.305v0.108H320.539z M323.006,165.176c-0.045-0.612-0.27-1.404-1.144-1.404
		c-0.854,0-1.296,0.765-1.323,1.404H323.006z"/>
</g>
<line fill="none" stroke="#5A5A59" stroke-width="1.09" x1="201.427" y1="57.509" x2="223.235" y2="57.509"/>
<polygon fill="#5A5A59" points="195.832,57.509 203.217,60.196 203.217,54.822 "/>
<rect x="128.055" y="193.449" fill="#D9D9D9" width="87.949" height="18.232"/>
<g>
	<path fill="#5A5A59" d="M142.826,205.447v-6.005h3.016v0.585h-2.305v2.071h2.206v0.566h-2.206v2.782H142.826z"/>
	<path fill="#5A5A59" d="M146.822,199.965v-0.783h0.657v0.783H146.822z M146.822,205.447v-4.483h0.657v4.483H146.822z"/>
	<path fill="#5A5A59" d="M148.784,205.447v-3.43c0-0.352-0.009-0.702-0.045-1.054h0.603l0.036,0.847
		c0.171-0.46,0.639-0.937,1.188-0.937c0.135,0,0.243,0,0.378,0.036l-0.036,0.657c-0.117-0.036-0.243-0.055-0.36-0.055
		c-0.91,0-1.107,1.009-1.107,1.711v2.224H148.784z"/>
	<path fill="#5A5A59" d="M151.736,205.447v-3.43c0-0.352-0.009-0.702-0.045-1.054h0.603l0.027,0.774
		c0.297-0.576,0.748-0.864,1.342-0.864c0.747,0,1.179,0.468,1.305,0.937c0.216-0.559,0.783-0.937,1.359-0.937
		c0.909,0,1.396,0.657,1.396,1.521v3.052h-0.657v-2.935c0-0.604-0.216-1.081-0.891-1.081c-0.819,0-1.117,0.811-1.117,1.594v2.422
		H154.4v-2.935c0-0.604-0.207-1.081-0.882-1.081c-0.829,0-1.125,0.811-1.125,1.594v2.422H151.736z"/>
	<path fill="#5A5A59" d="M159.908,205.447l-1.422-4.483h0.702l1.143,3.871l1.162-3.871h0.783l1.161,3.871l1.134-3.871h0.63
		l-1.396,4.483h-0.801l-1.143-3.862l-1.162,3.862H159.908z"/>
	<path fill="#5A5A59" d="M168.503,205.447l-0.027-0.721c-0.261,0.576-0.828,0.819-1.396,0.819c-0.801,0-1.467-0.423-1.467-1.332
		c0-1.152,1.008-1.494,2.323-1.494h0.504v-0.217c0-0.684-0.261-1.106-1.008-1.106c-0.459,0-0.882,0.126-1.269,0.378l-0.054-0.585
		c0.387-0.189,0.927-0.315,1.351-0.315c1.125,0,1.629,0.549,1.629,1.675v1.944c0,0.333,0.009,0.639,0.054,0.954H168.503z
		 M168.107,203.196c-0.837,0-1.818,0.091-1.818,0.99c0,0.604,0.423,0.829,0.864,0.829c0.954,0,1.287-0.721,1.287-1.549v-0.271
		H168.107z"/>
	<path fill="#5A5A59" d="M170.402,205.447v-3.43c0-0.352-0.009-0.702-0.045-1.054h0.603l0.036,0.847
		c0.171-0.46,0.639-0.937,1.188-0.937c0.135,0,0.243,0,0.378,0.036l-0.036,0.657c-0.117-0.036-0.243-0.055-0.36-0.055
		c-0.909,0-1.107,1.009-1.107,1.711v2.224H170.402z"/>
	<path fill="#5A5A59" d="M173.651,203.287c0,0.863,0.459,1.729,1.584,1.729c0.432,0,0.9-0.127,1.233-0.343l0.027,0.585
		c-0.387,0.189-0.837,0.288-1.26,0.288c-1.548,0-2.269-1.017-2.269-2.358c0-1.144,0.657-2.313,1.999-2.313
		c1.396,0,1.792,1.116,1.792,2.305v0.108H173.651z M176.117,202.801c-0.045-0.612-0.27-1.404-1.144-1.404
		c-0.855,0-1.296,0.765-1.323,1.404H176.117z"/>
	<path fill="#5A5A59" d="M179.636,205.447v-6.491h0.657v6.491H179.636z"/>
	<path fill="#5A5A59" d="M181.597,199.965v-0.783h0.657v0.783H181.597z M181.597,205.447v-4.483h0.657v4.483H181.597z"/>
	<path fill="#5A5A59" d="M183.559,205.447v-6.491h0.657v2.764c0.225-0.53,0.81-0.846,1.377-0.846c1.368,0,1.818,1.125,1.818,2.313
		c0,1.152-0.495,2.358-1.828,2.358c-0.621,0-1.116-0.27-1.404-0.846l-0.018,0.747H183.559z M185.459,204.988
		c1,0,1.243-0.981,1.243-1.801c0-0.828-0.225-1.756-1.243-1.756c-0.936,0-1.269,0.964-1.269,1.756c0,0.396,0.081,0.837,0.27,1.197
		C184.667,204.736,184.982,204.988,185.459,204.988z"/>
	<path fill="#5A5A59" d="M188.446,205.447v-3.43c0-0.352-0.009-0.702-0.045-1.054h0.603l0.036,0.847
		c0.171-0.46,0.639-0.937,1.188-0.937c0.135,0,0.243,0,0.378,0.036l-0.036,0.657c-0.117-0.036-0.243-0.055-0.36-0.055
		c-0.91,0-1.107,1.009-1.107,1.711v2.224H188.446z"/>
	<path fill="#5A5A59" d="M193.829,205.447l-0.027-0.721c-0.261,0.576-0.828,0.819-1.396,0.819c-0.801,0-1.467-0.423-1.467-1.332
		c0-1.152,1.008-1.494,2.323-1.494h0.504v-0.217c0-0.684-0.261-1.106-1.008-1.106c-0.459,0-0.882,0.126-1.269,0.378l-0.054-0.585
		c0.387-0.189,0.927-0.315,1.351-0.315c1.125,0,1.629,0.549,1.629,1.675v1.944c0,0.333,0.009,0.639,0.054,0.954H193.829z
		 M193.433,203.196c-0.837,0-1.818,0.091-1.818,0.99c0,0.604,0.423,0.829,0.864,0.829c0.954,0,1.287-0.721,1.287-1.549v-0.271
		H193.433z"/>
	<path fill="#5A5A59" d="M195.727,205.447v-3.43c0-0.352-0.009-0.702-0.045-1.054h0.603l0.036,0.847
		c0.171-0.46,0.639-0.937,1.188-0.937c0.135,0,0.243,0,0.378,0.036l-0.036,0.657c-0.117-0.036-0.243-0.055-0.36-0.055
		c-0.91,0-1.107,1.009-1.107,1.711v2.224H195.727z"/>
	<path fill="#5A5A59" d="M198.355,206.852c0.135,0.045,0.261,0.081,0.405,0.081c0.495,0,0.738-0.72,0.837-1.035l0.09-0.297
		l-1.558-4.637h0.711l1.206,3.862l1.198-3.862h0.684l-1.801,5.267c-0.243,0.693-0.603,1.261-1.287,1.261
		c-0.216,0-0.333-0.027-0.54-0.072L198.355,206.852z"/>
</g>
<rect x="127.657" y="155.824" fill="#D9D9D9" width="88.347" height="18.232"/>
<g>
	<path fill="#5A5A59" d="M148.738,167.822v-6.005h1.404c1.198,0,2.152,0.45,2.152,1.675c0,1.332-1.035,1.801-2.26,1.801h-0.585
		v2.529H148.738z M149.44,164.717h0.459c0.909,0,1.656-0.198,1.656-1.216c0-0.828-0.657-1.107-1.54-1.107h-0.576V164.717z"/>
	<path fill="#5A5A59" d="M153.309,167.822v-6.005h0.711v5.393h2.431v0.612H153.309z"/>
	<path fill="#5A5A59" d="M161.267,167.651c-0.396,0.207-0.99,0.27-1.432,0.27c-1.899,0-3.088-1.224-3.088-3.097
		c0-1.791,1.261-3.097,3.088-3.097c0.432,0,1.018,0.063,1.414,0.234l-0.054,0.639c-0.387-0.18-0.9-0.261-1.323-0.261
		c-1.485,0-2.376,1.071-2.376,2.484c0,1.477,0.855,2.485,2.368,2.485c0.459,0,0.927-0.055,1.35-0.262L161.267,167.651z"/>
	<path fill="#5A5A59" d="M164.208,169.767v-4.924c0-0.531-0.018-1-0.045-1.504h0.621l0.036,0.783
		c0.243-0.531,0.828-0.873,1.422-0.873c1.368,0,1.818,1.125,1.818,2.313c0,1.152-0.495,2.358-1.828,2.358
		c-0.585,0-1.143-0.297-1.368-0.828v2.674H164.208z M166.108,167.363c1,0,1.243-0.981,1.243-1.801c0-0.828-0.225-1.756-1.243-1.756
		c-0.936,0-1.269,0.964-1.269,1.756c0,0.396,0.081,0.837,0.27,1.197C165.316,167.111,165.631,167.363,166.108,167.363z"/>
	<path fill="#5A5A59" d="M169.095,167.822v-3.43c0-0.352-0.009-0.702-0.045-1.054h0.603l0.036,0.847
		c0.171-0.46,0.639-0.937,1.188-0.937c0.135,0,0.243,0,0.378,0.036l-0.036,0.657c-0.117-0.036-0.243-0.055-0.36-0.055
		c-0.91,0-1.107,1.009-1.107,1.711v2.224H169.095z"/>
	<path fill="#5A5A59" d="M171.678,165.563c0-1.287,0.765-2.313,2.098-2.313c1.404,0,2.098,0.99,2.098,2.313
		c0,1.297-0.711,2.358-2.098,2.358c-0.351,0-0.657-0.063-0.918-0.18C172.074,167.363,171.678,166.544,171.678,165.563z
		 M173.776,167.372c0.981,0,1.396-0.945,1.396-1.81c0-0.9-0.387-1.765-1.396-1.765c-0.99,0-1.396,0.9-1.396,1.765
		c0,0.433,0.099,0.883,0.324,1.233C172.93,167.129,173.281,167.372,173.776,167.372z"/>
	<path fill="#5A5A59" d="M177.052,168.992c0.396,0.207,0.837,0.324,1.296,0.324c1.08,0,1.485-0.738,1.485-1.71v-0.576
		c-0.279,0.504-0.819,0.792-1.386,0.792c-1.333,0-1.81-1.152-1.81-2.26c0-1.188,0.504-2.313,1.828-2.313
		c0.639,0,1.116,0.27,1.404,0.846v-0.756h0.621v4.259c0,1.395-0.63,2.269-2.098,2.269c-0.468,0-0.936-0.091-1.396-0.234
		L177.052,168.992z M178.582,167.264c0.963,0,1.27-0.936,1.27-1.692c0-0.783-0.333-1.765-1.26-1.765
		c-1.008,0-1.251,0.937-1.251,1.765c0,0.388,0.063,0.811,0.243,1.135C177.772,167.03,178.078,167.264,178.582,167.264z"/>
	<path fill="#5A5A59" d="M181.794,167.822v-3.43c0-0.352-0.009-0.702-0.045-1.054h0.603l0.036,0.847
		c0.171-0.46,0.639-0.937,1.188-0.937c0.135,0,0.243,0,0.378,0.036l-0.036,0.657c-0.117-0.036-0.243-0.055-0.36-0.055
		c-0.909,0-1.107,1.009-1.107,1.711v2.224H181.794z"/>
	<path fill="#5A5A59" d="M187.186,167.822l-0.027-0.721c-0.261,0.576-0.828,0.819-1.396,0.819c-0.801,0-1.467-0.423-1.467-1.332
		c0-1.152,1.008-1.494,2.323-1.494h0.504v-0.217c0-0.684-0.261-1.106-1.008-1.106c-0.459,0-0.882,0.126-1.269,0.378l-0.054-0.585
		c0.387-0.189,0.927-0.315,1.351-0.315c1.125,0,1.629,0.549,1.629,1.675v1.944c0,0.333,0.009,0.639,0.054,0.954H187.186z
		 M186.79,165.571c-0.837,0-1.818,0.091-1.818,0.99c0,0.604,0.423,0.829,0.864,0.829c0.954,0,1.287-0.721,1.287-1.549v-0.271H186.79
		z"/>
	<path fill="#5A5A59" d="M189.084,167.822v-3.43c0-0.352-0.009-0.702-0.045-1.054h0.603l0.027,0.774
		c0.297-0.576,0.748-0.864,1.342-0.864c0.747,0,1.179,0.468,1.305,0.937c0.216-0.559,0.783-0.937,1.359-0.937
		c0.909,0,1.396,0.657,1.396,1.521v3.052h-0.657v-2.935c0-0.604-0.216-1.081-0.891-1.081c-0.819,0-1.117,0.811-1.117,1.594v2.422
		h-0.657v-2.935c0-0.604-0.207-1.081-0.882-1.081c-0.829,0-1.125,0.811-1.125,1.594v2.422H189.084z"/>
</g>
<g>
	<path fill="#DC291A" d="M29.047,133.559c0-1.656,0.892-3.097,2.701-3.097c1.845,0,2.701,1.396,2.701,3.097
		c0,1.666-0.892,3.097-2.701,3.097c-0.459,0-0.864-0.081-1.207-0.243C29.533,135.927,29.047,134.855,29.047,133.559z
		 M31.748,136.062c1.404,0,1.944-1.287,1.944-2.503c0-1.215-0.54-2.503-1.944-2.503c-1.377,0-1.954,1.306-1.954,2.503
		c0,0.604,0.144,1.225,0.459,1.701C30.577,135.737,31.063,136.062,31.748,136.062z"/>
	<path fill="#DC291A" d="M35.554,138.501v-4.924c0-0.531-0.018-1-0.045-1.504h0.621l0.036,0.783
		c0.243-0.531,0.828-0.873,1.422-0.873c1.368,0,1.818,1.125,1.818,2.313c0,1.152-0.495,2.358-1.828,2.358
		c-0.585,0-1.143-0.297-1.368-0.828v2.674H35.554z M37.453,136.098c1,0,1.243-0.981,1.243-1.801c0-0.828-0.225-1.756-1.243-1.756
		c-0.936,0-1.269,0.964-1.269,1.756c0,0.396,0.081,0.837,0.27,1.197C36.661,135.846,36.976,136.098,37.453,136.098z"/>
	<path fill="#DC291A" d="M40.837,134.397c0,0.863,0.459,1.729,1.584,1.729c0.432,0,0.9-0.127,1.233-0.343l0.027,0.585
		c-0.387,0.189-0.837,0.288-1.26,0.288c-1.548,0-2.269-1.017-2.269-2.358c0-1.144,0.657-2.313,1.999-2.313
		c1.396,0,1.792,1.116,1.792,2.305v0.108H40.837z M43.303,133.91c-0.045-0.612-0.27-1.404-1.143-1.404
		c-0.855,0-1.297,0.765-1.324,1.404H43.303z"/>
	<path fill="#DC291A" d="M44.86,136.557v-3.43c0-0.352-0.009-0.702-0.045-1.054h0.603l0.036,0.847
		c0.171-0.46,0.639-0.937,1.188-0.937c0.135,0,0.243,0,0.378,0.036l-0.036,0.657c-0.117-0.036-0.243-0.055-0.36-0.055
		c-0.909,0-1.107,1.009-1.107,1.711v2.224H44.86z"/>
	<path fill="#DC291A" d="M50.251,136.557l-0.027-0.721c-0.261,0.576-0.828,0.819-1.396,0.819c-0.801,0-1.467-0.423-1.467-1.332
		c0-1.152,1.008-1.494,2.323-1.494h0.504v-0.217c0-0.684-0.261-1.106-1.008-1.106c-0.459,0-0.882,0.126-1.269,0.378l-0.054-0.585
		c0.387-0.189,0.927-0.315,1.351-0.315c1.125,0,1.629,0.549,1.629,1.675v1.944c0,0.333,0.009,0.639,0.054,0.954H50.251z
		 M49.855,134.306c-0.837,0-1.818,0.091-1.818,0.99c0,0.604,0.423,0.829,0.864,0.829c0.954,0,1.287-0.721,1.287-1.549v-0.271H49.855
		z"/>
	<path fill="#DC291A" d="M54.256,136.521c-0.225,0.1-0.486,0.135-0.729,0.135c-0.918,0-1.035-0.666-1.035-1.485v-2.583h-0.847
		v-0.514h0.847v-1.008l0.648-0.226v1.233h1.018v0.514H53.14v2.754c0,0.396,0.108,0.748,0.576,0.748c0.18,0,0.333-0.045,0.504-0.117
		L54.256,136.521z"/>
	<path fill="#DC291A" d="M55.101,131.074v-0.783h0.657v0.783H55.101z M55.101,136.557v-4.483h0.657v4.483H55.101z"/>
	<path fill="#DC291A" d="M57.063,136.557v-3.43c0-0.352-0.009-0.702-0.045-1.054h0.603l0.027,0.774
		c0.315-0.576,0.801-0.864,1.45-0.864c1.152,0,1.503,0.756,1.503,1.791v2.782h-0.648V133.9c0-0.711-0.144-1.359-1.008-1.359
		c-0.936,0-1.224,0.811-1.224,1.603v2.413H57.063z"/>
	<path fill="#DC291A" d="M62.058,137.727c0.396,0.207,0.837,0.324,1.296,0.324c1.08,0,1.485-0.738,1.485-1.71v-0.576
		c-0.279,0.504-0.819,0.792-1.386,0.792c-1.333,0-1.81-1.152-1.81-2.26c0-1.188,0.504-2.313,1.828-2.313
		c0.639,0,1.116,0.27,1.404,0.846v-0.756h0.621v4.259c0,1.395-0.63,2.269-2.098,2.269c-0.468,0-0.936-0.091-1.396-0.234
		L62.058,137.727z M63.589,135.998c0.963,0,1.27-0.936,1.27-1.692c0-0.783-0.333-1.765-1.26-1.765c-1.008,0-1.251,0.937-1.251,1.765
		c0,0.388,0.063,0.811,0.243,1.135C62.779,135.765,63.085,135.998,63.589,135.998z"/>
</g>
<g>
	<path fill="#DC291A" d="M29.047,144.836c0.36,0.189,0.693,0.279,1.099,0.279c0.504,0,0.855-0.243,0.855-0.747
		c0-1.089-1.936-0.774-1.936-2.143c0-0.9,0.747-1.242,1.45-1.242c0.369,0,0.702,0.072,1.017,0.188l-0.09,0.567
		c-0.279-0.135-0.604-0.225-0.918-0.225c-0.351,0-0.801,0.135-0.801,0.675c0,0.9,1.954,0.621,1.954,2.125
		c0,0.864-0.729,1.341-1.521,1.341c-0.432,0-0.828-0.054-1.188-0.207L29.047,144.836z"/>
	<path fill="#DC291A" d="M32.422,146.961c0.135,0.045,0.261,0.081,0.405,0.081c0.495,0,0.738-0.72,0.837-1.035l0.09-0.297
		l-1.558-4.637h0.711l1.206,3.862l1.198-3.862h0.684l-1.801,5.267c-0.243,0.693-0.603,1.261-1.287,1.261
		c-0.216,0-0.333-0.027-0.54-0.072L32.422,146.961z"/>
	<path fill="#DC291A" d="M36.543,144.836c0.36,0.189,0.693,0.279,1.099,0.279c0.504,0,0.855-0.243,0.855-0.747
		c0-1.089-1.936-0.774-1.936-2.143c0-0.9,0.748-1.242,1.45-1.242c0.369,0,0.702,0.072,1.017,0.188l-0.09,0.567
		c-0.279-0.135-0.604-0.225-0.918-0.225c-0.351,0-0.801,0.135-0.801,0.675c0,0.9,1.954,0.621,1.954,2.125
		c0,0.864-0.729,1.341-1.521,1.341c-0.432,0-0.828-0.054-1.188-0.207L36.543,144.836z"/>
	<path fill="#DC291A" d="M42.349,145.521c-0.225,0.1-0.486,0.135-0.729,0.135c-0.918,0-1.035-0.666-1.035-1.485v-2.583h-0.847
		v-0.514h0.847v-1.008l0.648-0.226v1.233h1.018v0.514h-1.018v2.754c0,0.396,0.108,0.748,0.576,0.748c0.18,0,0.333-0.045,0.504-0.117
		L42.349,145.521z"/>
	<path fill="#DC291A" d="M43.591,143.397c0,0.863,0.459,1.729,1.584,1.729c0.432,0,0.9-0.127,1.233-0.343l0.027,0.585
		c-0.387,0.189-0.837,0.288-1.26,0.288c-1.548,0-2.269-1.017-2.269-2.358c0-1.144,0.657-2.313,1.999-2.313
		c1.396,0,1.792,1.116,1.792,2.305v0.108H43.591z M46.057,142.91c-0.045-0.612-0.27-1.404-1.143-1.404
		c-0.855,0-1.297,0.765-1.324,1.404H46.057z"/>
	<path fill="#DC291A" d="M47.614,145.557v-3.43c0-0.352-0.009-0.702-0.045-1.054h0.603l0.027,0.774
		c0.297-0.576,0.748-0.864,1.342-0.864c0.747,0,1.179,0.468,1.305,0.937c0.216-0.559,0.783-0.937,1.359-0.937
		c0.909,0,1.396,0.657,1.396,1.521v3.052h-0.657v-2.935c0-0.604-0.216-1.081-0.891-1.081c-0.819,0-1.117,0.811-1.117,1.594v2.422
		h-0.657v-2.935c0-0.604-0.207-1.081-0.882-1.081c-0.829,0-1.125,0.811-1.125,1.594v2.422H47.614z"/>
</g>
<line fill="none" stroke="#5A5A59" stroke-width="1.09" x1="145.548" y1="137.297" x2="145.548" y2="88.224"/>
<polygon fill="#5A5A59" points="145.548,142.891 148.234,135.506 142.86,135.506 "/>
<polygon fill="#5A5A59" points="145.548,82.63 142.86,90.015 148.234,90.015 "/>
<line fill="none" stroke="#5A5A59" stroke-width="1.09" x1="166.665" y1="190.384" x2="166.665" y2="179.414"/>
<line fill="none" stroke="#5A5A59" stroke-width="1.09" x1="221.108" y1="163.738" x2="256.964" y2="163.738"/>
<g>
	<path fill="#5A5A59" d="M33.568,161.41c-0.396,0.207-0.99,0.27-1.432,0.27c-1.899,0-3.088-1.224-3.088-3.097
		c0-1.791,1.261-3.097,3.088-3.097c0.432,0,1.018,0.063,1.414,0.234l-0.054,0.639c-0.387-0.18-0.9-0.261-1.323-0.261
		c-1.485,0-2.376,1.071-2.376,2.484c0,1.477,0.855,2.485,2.368,2.485c0.459,0,0.927-0.055,1.35-0.262L33.568,161.41z"/>
	<path fill="#5A5A59" d="M34.016,162.985c0.135,0.045,0.261,0.081,0.405,0.081c0.495,0,0.738-0.72,0.837-1.035l0.09-0.297
		l-1.558-4.637h0.711l1.206,3.862l1.198-3.862h0.684l-1.801,5.267c-0.243,0.693-0.603,1.261-1.287,1.261
		c-0.216,0-0.333-0.027-0.54-0.072L34.016,162.985z"/>
	<path fill="#5A5A59" d="M41.37,161.509c-0.387,0.136-0.765,0.171-1.161,0.171c-1.377,0-2.143-1.053-2.143-2.358
		c0-1.332,0.837-2.313,2.206-2.313c0.369,0,0.747,0.072,1.098,0.188l-0.054,0.586c-0.288-0.136-0.612-0.226-0.937-0.226
		c-1.08,0-1.611,0.757-1.611,1.765c0,0.945,0.531,1.81,1.566,1.81c0.351,0,0.675-0.072,0.99-0.207L41.37,161.509z"/>
	<path fill="#5A5A59" d="M42.324,161.581v-6.491h0.657v6.491H42.324z"/>
	<path fill="#5A5A59" d="M44.285,156.099v-0.783h0.657v0.783H44.285z M44.285,161.581v-4.483h0.657v4.483H44.285z"/>
	<path fill="#5A5A59" d="M49.281,161.509c-0.387,0.136-0.765,0.171-1.161,0.171c-1.377,0-2.143-1.053-2.143-2.358
		c0-1.332,0.837-2.313,2.206-2.313c0.369,0,0.747,0.072,1.098,0.188l-0.054,0.586c-0.288-0.136-0.612-0.226-0.937-0.226
		c-1.08,0-1.611,0.757-1.611,1.765c0,0.945,0.531,1.81,1.566,1.81c0.351,0,0.675-0.072,0.99-0.207L49.281,161.509z"/>
</g>
<text transform="matrix(1 0 0 1 49.5686 161.5807)" fill="#5A5A59" font-family="'FrutigerNextLTW1G-Regular'" font-size="9px"> </text>
<g>
	<path fill="#5A5A59" d="M32.281,170.509c-0.387,0.136-0.765,0.171-1.161,0.171c-1.377,0-2.143-1.053-2.143-2.358
		c0-1.332,0.837-2.313,2.206-2.313c0.369,0,0.747,0.072,1.098,0.188l-0.054,0.586c-0.288-0.136-0.612-0.226-0.937-0.226
		c-1.08,0-1.611,0.757-1.611,1.765c0,0.945,0.531,1.81,1.566,1.81c0.351,0,0.675-0.072,0.99-0.207L32.281,170.509z"/>
	<path fill="#5A5A59" d="M35.772,170.581l-0.027-0.72c-0.261,0.576-0.828,0.818-1.396,0.818c-0.801,0-1.467-0.423-1.467-1.332
		c0-1.152,1.008-1.494,2.323-1.494h0.504v-0.217c0-0.684-0.261-1.106-1.008-1.106c-0.459,0-0.882,0.126-1.269,0.378l-0.054-0.585
		c0.387-0.189,0.927-0.315,1.351-0.315c1.125,0,1.629,0.549,1.629,1.675v1.944c0,0.333,0.009,0.639,0.054,0.954H35.772z
		 M35.376,168.33c-0.837,0-1.818,0.09-1.818,0.99c0,0.604,0.423,0.828,0.864,0.828c0.954,0,1.287-0.72,1.287-1.548v-0.271H35.376z"
		/>
	<path fill="#5A5A59" d="M37.671,170.581v-6.491h0.657v6.491H37.671z"/>
	<path fill="#5A5A59" d="M39.642,170.581v-6.491h0.657v6.491H39.642z"/>
</g>
<line fill="none" stroke="#5A5A59" stroke-width="1.09" x1="29.598" y1="181.598" x2="96.508" y2="181.598"/>
<polygon fill="#5A5A59" points="102.102,181.598 94.717,178.911 94.717,184.285 "/>
<line fill="none" stroke="#5A5A59" stroke-width="1.09" x1="29.598" y1="187.967" x2="96.508" y2="187.967"/>
<polygon fill="#5A5A59" points="102.102,187.967 94.717,185.28 94.717,190.654 "/>
<line fill="none" stroke="#5A5A59" stroke-width="1.09" x1="344.885" y1="166.572" x2="446.587" y2="166.572"/>
<polygon fill="#5A5A59" points="339.291,166.572 346.676,169.259 346.676,163.885 "/>
<polygon fill="#5A5A59" points="452.181,166.572 444.796,163.885 444.796,169.259 "/>
<g>
	<path fill="#5A5A59" d="M457.572,136.56v-6.005h0.711v6.005H457.572z"/>
	<path fill="#5A5A59" d="M458.848,136.56l2.359-6.005h0.63l-2.35,6.005H458.848z"/>
	<path fill="#5A5A59" d="M462.107,133.562c0-1.656,0.892-3.097,2.701-3.097c1.846,0,2.7,1.396,2.7,3.097
		c0,1.666-0.891,3.097-2.7,3.097c-0.459,0-0.864-0.081-1.207-0.242C462.593,135.93,462.107,134.858,462.107,133.562z
		 M464.808,136.064c1.404,0,1.944-1.287,1.944-2.503c0-1.215-0.54-2.503-1.944-2.503c-1.378,0-1.954,1.306-1.954,2.503
		c0,0.604,0.145,1.225,0.459,1.702C463.637,135.74,464.123,136.064,464.808,136.064z"/>
	<path fill="#5A5A59" d="M470.981,136.56v-3.961h-0.873v-0.522h0.873V131.5c0-0.639,0.107-1.521,1.206-1.521
		c0.171,0,0.423,0.009,0.576,0.09l-0.054,0.54c-0.135-0.063-0.288-0.081-0.433-0.081c-0.549,0-0.647,0.441-0.647,0.945v0.604h1.008
		v0.522h-0.999v3.961H470.981z M473.322,131.077v-0.783h0.657v0.783H473.322z M473.322,136.56v-4.483h0.657v4.483H473.322z"/>
	<path fill="#5A5A59" d="M475.688,134.398c0,0.865,0.459,1.729,1.584,1.729c0.433,0,0.9-0.126,1.233-0.342l0.027,0.585
		c-0.388,0.189-0.838,0.288-1.261,0.288c-1.549,0-2.269-1.017-2.269-2.358c0-1.144,0.657-2.313,1.999-2.313
		c1.395,0,1.791,1.116,1.791,2.305v0.107H475.688z M478.155,133.913c-0.046-0.612-0.271-1.404-1.144-1.404
		c-0.855,0-1.297,0.765-1.323,1.404H478.155z"/>
	<path fill="#5A5A59" d="M479.71,136.56v-6.491h0.657v6.491H479.71z"/>
	<path fill="#5A5A59" d="M484.688,136.56l-0.054-0.747c-0.288,0.576-0.783,0.846-1.404,0.846c-1.333,0-1.828-1.206-1.828-2.358
		c0-1.188,0.505-2.313,1.846-2.313c0.567,0,1.126,0.315,1.351,0.846v-2.764h0.657v5.068c0,0.495,0.018,0.955,0.045,1.423H484.688z
		 M483.356,136.101c0.954,0,1.26-1.009,1.26-1.792s-0.333-1.765-1.269-1.765c-1.018,0-1.243,0.937-1.243,1.765
		c0,0.405,0.063,0.855,0.253,1.207C482.545,135.849,482.852,136.101,483.356,136.101z"/>
	<path fill="#5A5A59" d="M486.56,136.56v-6.491h0.657v2.764c0.225-0.53,0.811-0.846,1.377-0.846c1.369,0,1.819,1.125,1.819,2.313
		c0,1.152-0.495,2.358-1.828,2.358c-0.621,0-1.116-0.27-1.404-0.846l-0.018,0.747H486.56z M488.459,136.101
		c0.999,0,1.242-0.981,1.242-1.801c0-0.828-0.225-1.756-1.242-1.756c-0.937,0-1.27,0.964-1.27,1.756
		c0,0.396,0.081,0.837,0.271,1.197C487.667,135.849,487.983,136.101,488.459,136.101z"/>
	<path fill="#5A5A59" d="M492.086,134.732c0,0.711,0.135,1.359,0.99,1.359c0.936,0,1.224-0.811,1.224-1.603v-2.413h0.648v3.43
		c0,0.352,0.009,0.702,0.045,1.054h-0.603l-0.019-0.774c-0.315,0.576-0.792,0.873-1.449,0.873c-1.144,0-1.494-0.765-1.494-1.81
		v-2.772h0.657V134.732z"/>
	<path fill="#5A5A59" d="M496.063,135.84c0.36,0.188,0.693,0.278,1.099,0.278c0.504,0,0.855-0.243,0.855-0.747
		c0-1.089-1.936-0.774-1.936-2.143c0-0.9,0.747-1.242,1.449-1.242c0.369,0,0.702,0.072,1.018,0.188l-0.091,0.567
		c-0.278-0.135-0.603-0.225-0.918-0.225c-0.352,0-0.801,0.135-0.801,0.675c0,0.9,1.953,0.621,1.953,2.125
		c0,0.864-0.729,1.341-1.521,1.341c-0.432,0-0.828-0.054-1.188-0.207L496.063,135.84z"/>
</g>
<g>
	<path fill="#5A5A59" d="M400.682,163.425v-6.005h0.712v6.005H400.682z"/>
	<path fill="#5A5A59" d="M401.96,163.425l2.358-6.005h0.631l-2.35,6.005H401.96z"/>
	<path fill="#5A5A59" d="M405.218,160.427c0-1.656,0.892-3.097,2.701-3.097c1.845,0,2.7,1.396,2.7,3.097
		c0,1.666-0.891,3.097-2.7,3.097c-0.46,0-0.864-0.081-1.206-0.242C405.704,162.795,405.218,161.724,405.218,160.427z
		 M407.919,162.93c1.404,0,1.944-1.287,1.944-2.503c0-1.215-0.54-2.503-1.944-2.503c-1.378,0-1.954,1.306-1.954,2.503
		c0,0.604,0.145,1.225,0.459,1.702C406.748,162.605,407.235,162.93,407.919,162.93z"/>
	<path fill="#5A5A59" d="M416.694,163.425l-0.054-0.747c-0.288,0.576-0.783,0.846-1.404,0.846c-1.333,0-1.827-1.206-1.827-2.358
		c0-1.188,0.504-2.313,1.845-2.313c0.567,0,1.126,0.315,1.351,0.846v-2.764h0.657v5.068c0,0.495,0.019,0.955,0.045,1.423H416.694z
		 M415.362,162.966c0.954,0,1.26-1.009,1.26-1.792s-0.332-1.765-1.27-1.765c-1.017,0-1.242,0.937-1.242,1.765
		c0,0.405,0.063,0.855,0.252,1.207C414.551,162.714,414.858,162.966,415.362,162.966z"/>
	<path fill="#5A5A59" d="M418.565,163.425v-3.43c0-0.352-0.009-0.702-0.045-1.054h0.604l0.036,0.847
		c0.171-0.46,0.64-0.937,1.188-0.937c0.135,0,0.242,0,0.378,0.036l-0.036,0.657c-0.117-0.036-0.243-0.055-0.359-0.055
		c-0.91,0-1.107,1.009-1.107,1.711v2.224H418.565z"/>
	<path fill="#5A5A59" d="M421.517,157.942v-0.783h0.657v0.783H421.517z M421.517,163.425v-4.483h0.657v4.483H421.517z"/>
	<path fill="#5A5A59" d="M424.424,163.425l-1.504-4.483h0.711l1.198,3.907l1.206-3.907h0.684l-1.521,4.483H424.424z"/>
	<path fill="#5A5A59" d="M427.862,161.264c0,0.865,0.46,1.729,1.585,1.729c0.433,0,0.9-0.126,1.233-0.342l0.027,0.585
		c-0.387,0.189-0.838,0.288-1.261,0.288c-1.548,0-2.269-1.017-2.269-2.358c0-1.144,0.657-2.313,1.998-2.313
		c1.396,0,1.792,1.116,1.792,2.305v0.107H427.862z M430.328,160.778c-0.045-0.612-0.27-1.404-1.143-1.404
		c-0.855,0-1.297,0.765-1.324,1.404H430.328z"/>
	<path fill="#5A5A59" d="M431.885,163.425v-3.43c0-0.352-0.009-0.702-0.045-1.054h0.604l0.035,0.847
		c0.172-0.46,0.64-0.937,1.189-0.937c0.135,0,0.242,0,0.377,0.036l-0.035,0.657c-0.117-0.036-0.244-0.055-0.36-0.055
		c-0.909,0-1.107,1.009-1.107,1.711v2.224H431.885z"/>
</g>
<g>
	<path fill="#DC291A" d="M179.248,136.389c-0.396,0.207-0.99,0.27-1.432,0.27c-1.899,0-3.088-1.224-3.088-3.097
		c0-1.791,1.261-3.097,3.088-3.097c0.432,0,1.018,0.063,1.414,0.234l-0.054,0.639c-0.387-0.18-0.9-0.261-1.323-0.261
		c-1.485,0-2.376,1.071-2.376,2.484c0,1.477,0.855,2.485,2.368,2.485c0.459,0,0.927-0.055,1.35-0.262L179.248,136.389z"/>
	<path fill="#DC291A" d="M179.93,133.562c0-1.656,0.892-3.097,2.701-3.097c1.845,0,2.701,1.396,2.701,3.097
		c0,1.666-0.891,3.097-2.701,3.097c-0.459,0-0.864-0.081-1.207-0.242C180.416,135.93,179.93,134.858,179.93,133.562z
		 M182.631,136.064c1.404,0,1.944-1.287,1.944-2.503c0-1.215-0.54-2.503-1.944-2.503c-1.377,0-1.954,1.306-1.954,2.503
		c0,0.604,0.144,1.225,0.459,1.702C181.461,135.74,181.947,136.064,182.631,136.064z"/>
	<path fill="#DC291A" d="M186.545,136.56v-6.005h1.566c1.918,0,3.106,0.963,3.106,2.917c0,2.125-1.449,3.088-3.439,3.088H186.545z
		 M187.257,135.975h0.504c1.693,0,2.71-0.747,2.71-2.503c0-1.513-0.864-2.332-2.386-2.332h-0.828V135.975z"/>
	<path fill="#DC291A" d="M192.404,136.56v-6.005h3.097v0.585h-2.386v2.053h2.269v0.567h-2.269v2.215h2.484v0.585H192.404z"/>
	<path fill="#DC291A" d="M196.526,135.713c0.423,0.262,0.882,0.352,1.386,0.352c0.685,0,1.225-0.297,1.225-1.09
		c0-0.63-0.477-0.927-1.035-1.215l-0.486-0.261c-0.576-0.315-1.035-0.685-1.035-1.477c0-1.09,0.963-1.558,1.936-1.558
		c0.423,0,0.792,0.063,1.161,0.216l-0.081,0.64c-0.324-0.181-0.702-0.262-1.071-0.262c-0.63,0-1.215,0.217-1.215,0.937
		c0,0.495,0.36,0.774,0.837,1.026l0.486,0.261c0.675,0.36,1.243,0.729,1.243,1.647c0,1.126-0.927,1.729-1.954,1.729
		c-0.513,0-1.018-0.071-1.477-0.278L196.526,135.713z"/>
	<path fill="#DC291A" d="M202.493,136.56v-2.503l-2.214-3.502h0.792l1.801,2.926l1.8-2.926h0.766l-2.233,3.502v2.503H202.493z"/>
	<path fill="#DC291A" d="M205.958,135.713c0.423,0.262,0.882,0.352,1.386,0.352c0.685,0,1.225-0.297,1.225-1.09
		c0-0.63-0.477-0.927-1.035-1.215l-0.486-0.261c-0.576-0.315-1.035-0.685-1.035-1.477c0-1.09,0.963-1.558,1.936-1.558
		c0.423,0,0.792,0.063,1.161,0.216l-0.081,0.64c-0.324-0.181-0.702-0.262-1.071-0.262c-0.63,0-1.215,0.217-1.215,0.937
		c0,0.495,0.36,0.774,0.837,1.026l0.486,0.261c0.675,0.36,1.243,0.729,1.243,1.647c0,1.126-0.927,1.729-1.954,1.729
		c-0.513,0-1.018-0.071-1.477-0.278L205.958,135.713z"/>
	<path fill="#DC291A" d="M216.741,136.389c-0.396,0.207-0.99,0.27-1.432,0.27c-1.899,0-3.088-1.224-3.088-3.097
		c0-1.791,1.261-3.097,3.088-3.097c0.432,0,1.018,0.063,1.414,0.234l-0.054,0.639c-0.387-0.18-0.9-0.261-1.323-0.261
		c-1.485,0-2.376,1.071-2.376,2.484c0,1.477,0.855,2.485,2.368,2.485c0.459,0,0.927-0.055,1.35-0.262L216.741,136.389z"/>
	<path fill="#DC291A" d="M217.451,134.3c0-1.287,0.765-2.313,2.098-2.313c1.404,0,2.098,0.99,2.098,2.313
		c0,1.297-0.711,2.358-2.098,2.358c-0.351,0-0.657-0.063-0.918-0.18C217.847,136.101,217.451,135.281,217.451,134.3z
		 M219.549,136.109c0.981,0,1.396-0.945,1.396-1.81c0-0.9-0.387-1.765-1.396-1.765c-0.99,0-1.396,0.9-1.396,1.765
		c0,0.433,0.099,0.883,0.324,1.233C218.702,135.866,219.053,136.109,219.549,136.109z"/>
	<path fill="#DC291A" d="M222.68,136.56v-3.43c0-0.352-0.009-0.702-0.045-1.054h0.603l0.027,0.774
		c0.315-0.576,0.801-0.864,1.45-0.864c1.152,0,1.503,0.756,1.503,1.791v2.782h-0.648v-2.656c0-0.711-0.144-1.359-1.008-1.359
		c-0.936,0-1.224,0.811-1.224,1.603v2.413H222.68z"/>
	<path fill="#DC291A" d="M229.637,136.523c-0.225,0.1-0.486,0.135-0.729,0.135c-0.918,0-1.035-0.666-1.035-1.485v-2.583h-0.847
		v-0.514h0.847v-1.008l0.648-0.226v1.233h1.018v0.514h-1.018v2.754c0,0.396,0.108,0.748,0.576,0.748c0.18,0,0.333-0.045,0.504-0.117
		L229.637,136.523z"/>
	<path fill="#DC291A" d="M230.483,136.56v-3.43c0-0.352-0.009-0.702-0.045-1.054h0.603l0.036,0.847
		c0.171-0.46,0.639-0.937,1.188-0.937c0.135,0,0.243,0,0.378,0.036l-0.036,0.657c-0.117-0.036-0.243-0.055-0.36-0.055
		c-0.909,0-1.107,1.009-1.107,1.711v2.224H230.483z"/>
	<path fill="#DC291A" d="M233.065,134.3c0-1.287,0.765-2.313,2.098-2.313c1.404,0,2.098,0.99,2.098,2.313
		c0,1.297-0.711,2.358-2.098,2.358c-0.351,0-0.657-0.063-0.918-0.18C233.461,136.101,233.065,135.281,233.065,134.3z
		 M235.163,136.109c0.981,0,1.396-0.945,1.396-1.81c0-0.9-0.387-1.765-1.396-1.765c-0.99,0-1.396,0.9-1.396,1.765
		c0,0.433,0.099,0.883,0.324,1.233C234.317,135.866,234.668,136.109,235.163,136.109z"/>
	<path fill="#DC291A" d="M238.294,136.56v-6.491h0.657v6.491H238.294z"/>
	<path fill="#DC291A" d="M242.317,136.56v-6.005h1.477c0.981,0,2.043,0.279,2.043,1.477c0,0.801-0.612,1.387-1.359,1.485
		c0.387,0.081,0.648,0.369,0.819,0.766l0.981,2.277h-0.801l-0.829-1.98c-0.261-0.621-0.459-0.792-1.17-0.792h-0.45v2.772H242.317z
		 M243.019,133.211h0.612c0.693,0,1.467-0.262,1.467-1.117c0-0.828-0.738-0.963-1.503-0.963h-0.576V133.211z"/>
	<path fill="#DC291A" d="M247.78,134.732c0,0.711,0.135,1.359,0.99,1.359c0.937,0,1.225-0.811,1.225-1.603v-2.413h0.648v3.43
		c0,0.352,0.009,0.702,0.045,1.054h-0.603l-0.018-0.774c-0.315,0.576-0.792,0.873-1.449,0.873c-1.144,0-1.495-0.765-1.495-1.81
		v-2.772h0.657V134.732z"/>
	<path fill="#DC291A" d="M251.956,136.56v-3.43c0-0.352-0.009-0.702-0.045-1.054h0.603l0.027,0.774
		c0.315-0.576,0.801-0.864,1.45-0.864c1.152,0,1.503,0.756,1.503,1.791v2.782h-0.648v-2.656c0-0.711-0.144-1.359-1.008-1.359
		c-0.936,0-1.224,0.811-1.224,1.603v2.413H251.956z"/>
	<path fill="#DC291A" d="M258.913,136.523c-0.225,0.1-0.486,0.135-0.729,0.135c-0.918,0-1.035-0.666-1.035-1.485v-2.583h-0.847
		v-0.514h0.847v-1.008l0.648-0.226v1.233h1.018v0.514h-1.018v2.754c0,0.396,0.108,0.748,0.576,0.748c0.18,0,0.333-0.045,0.504-0.117
		L258.913,136.523z"/>
	<path fill="#DC291A" d="M259.759,131.077v-0.783h0.657v0.783H259.759z M259.759,136.56v-4.483h0.657v4.483H259.759z"/>
	<path fill="#DC291A" d="M261.72,136.56v-3.43c0-0.352-0.009-0.702-0.045-1.054h0.603l0.027,0.774
		c0.297-0.576,0.748-0.864,1.342-0.864c0.747,0,1.179,0.468,1.305,0.937c0.216-0.559,0.783-0.937,1.359-0.937
		c0.909,0,1.396,0.657,1.396,1.521v3.052h-0.657v-2.935c0-0.604-0.216-1.081-0.891-1.081c-0.819,0-1.117,0.811-1.117,1.594v2.422
		h-0.657v-2.935c0-0.604-0.207-1.081-0.882-1.081c-0.829,0-1.125,0.811-1.125,1.594v2.422H261.72z"/>
	<path fill="#DC291A" d="M269.407,134.398c0,0.865,0.459,1.729,1.584,1.729c0.432,0,0.9-0.126,1.233-0.342l0.027,0.585
		c-0.387,0.189-0.837,0.288-1.26,0.288c-1.548,0-2.269-1.017-2.269-2.358c0-1.144,0.657-2.313,1.999-2.313
		c1.396,0,1.792,1.116,1.792,2.305v0.107H269.407z M271.873,133.913c-0.045-0.612-0.27-1.404-1.144-1.404
		c-0.855,0-1.296,0.765-1.323,1.404H271.873z"/>
</g>
<polyline fill="none" stroke="#DC291A" points="201.031,19.358 82.759,19.358 82.759,56.878 93.81,56.878 "/>
<path fill="#DC291A" d="M93.81,58.878c1.105,0,2-0.896,2-2c0-1.104-0.895-2-2-2c-1.105,0-2,0.896-2,2
	C91.81,57.982,92.705,58.878,93.81,58.878"/>
<rect x="12.811" y="8.289" fill="none" width="488.454" height="237.203"/>
</svg>
